<svg xmlns="http://www.w3.org/2000/svg" width="373pt" height="373pt" preserveAspectRatio="xMidYMid" viewBox="0 0 373 373"><g fill="#c67"><path d="M189.3 148.6q-1 .5-1.8.1h-.4q0 .3-.5 0h-.6q0 .3-.4.3-.2 0-.5.2-.1.3-.5 0c-.5-.3-1-.3-3.2.1q-3 .5-3 1 0 .2-.3.2t-.4 0l-.3.2-.7.4-.6.4-1.2-.1h-1.1q-1.5.2-1.9-.7 0-.6-.6-.2l-.6 1c-.6 1.4-1 1.9-2 2.3-1 .5-2 1.4-2 1.9l-.5.8q-.4.4-.3 1.6l-.2 1.2q-.3.3-.3.5t-.6.6q-.5.6-1 .8c-.3.4-1.3.8-1.7.8q-.4-.1-1 1.3l-.6.8c-.4 0-1.3 1.4-1.3 2q0 .8-1.2 1.8l-.7 1.4-.7 1.2q-.3.2-.4.8l-.2 1 .1.4.6.3q.6.9.3 1c-.3 0-.4.8-.1 1.2.3.5.3 2-.1 3l-.4 1.3c0 .5-.8 1.9-1 1.9l-.3.1.2.2q.3 0 .5.5l.3.7q.2.4 0 .4l-.2 1q0 .8.5 1.2.9.9.3.7-.3-.2-.2.3.2.8.7.4.3-.3.1-.4c-.2 0-.3-.5 0-.5l.3.5.4.5.1.2q0 .3.3.3l.2.1.9 1 .9 1.4q0 1 .3 1.2v.3l.1.2q.2 0 .1.2 0 .3.7.6c.7.2 1.3.7 3.3 2.6 2 1.8 2.6 2 4.1 1.2 1.6-.8 4.2-.8 5.6-.1l.8-.1a13 13 0 0 1 3-1.3q.5 0 .5-.3c.2-.3 1.5-.6 3.1-.6q1.3 0 1.6.3c.4.4 1 1.5 1 1.8q0 .4.4.6.3.5 1 .3l1.2-.2 1.3-.1q.5 0 .6.3 0 .4.4.5.3 0 .4.3 0 .3.2.5c.3.2.2 1.9-.3 2.7q-.3.7 0 .7v.4l-.2 1q-.2 1.3-.6 1-.3 0 0 .9l.6 1.2c.2.3.6 1 1 1.2a11 11 0 0 1 2.8 4.5q.2.1.1.3 0 .1.3 1l.8 1.8c.3 1 .3 1 0 1.2-.4.2-.4.3.2 1.6a6 6 0 0 1 .5 2.2q0 1.5-.6 1.7c-.3 0-1 1.4-1.2 2.2-.1 1-.6 2.5-.7 2.5-.2 0-.1 3.2.1 3.7l.3.6c.2 0 1 1.5 1.7 3.3l.7 1.4q.5.7.5 2 0 1 .2 2l.4 2.4c.4 1.7.6 2.3 1.5 3.2q.6.7 1 1.9c.4 1.2 1 2.5 1.2 2.6l.2.9q.2 1-.1.8l-.3.2c-.1.2.2.8.4 1v.5q0 1 .5.7 0-.3.1 0l.2.1q.3 0 .6.4.5.6 1.1 0 .3-.3 1-.2.8 0 1.1-.3c.5-.3 1.8-.4 2.7-.2h.9q.2-.2.6-.1.3 0 .4-.2 0-.1.7-.2c.9-.1 2.6-1.3 3.5-2.3l1-1c.7-.7 1.8-2.3 1.8-2.6a4 4 0 0 1 1.4-1.4q.3 0 .9-2c.3-.9.4-2.2.1-2q-.4.2.2-.7l1.6-.9q1.3-.4 1.6-1t.2-.7v-.7c.2-.5.2-1.9 0-2l-.2-.4q0 0 .2 0 .1.4.1 0t-.2-.4q-.1 0-.2-.6l-.2-.6q-.2 0-.2-.5c0-.4 1.5-2 2-2l.2-.2.3-.6q.8-1.2 2.2-1.7l1-.5.4-.2c.5-.3 1.6-1.8 1.8-2.5a2 2 0 0 0 0-1.4l-.1-3c0-2.7 0-2.6-.4-2.8q-.4-.2-.7-1.4c-.4-1.5-.3-1.7 0-1.8q.4 0 .4-.3 0 0-.2 0-.7-.1-.3-.8.1-.2-.4-.9l-.4-.8c0-.4.5-2 .7-2 .2-.2 1-2 1-2.6l.5-.5a6 6 0 0 0 1.8-1.9c.7-1.4 3-3.9 4.4-4.8a17 17 0 0 0 4.8-6.2 10 10 0 0 1 1.3-3l.5-1q.4-.7.4-1.4t.3-.7q.6-.1.2-.4c-.2 0-.2-1-.1-1.5 0-.5-.7-.7-1-.3s-1.9.9-2.2.7l-.7.1q-.4.2-.8.2-.3-.1-.8.2t-1 .3-1.1.2q-1.2.8-2.2-.7-.3-.5-.7-.6l-.4-.1.3-.2q1-.4-.2-1.7l-1-1.1-.4-.4-.5-.5q-.2-.4-.5-.6l-.6-.3-.4-.2q-.3 0-.3-.3l.1-.4q.3 0 0-.3-.4-.5-.5.1t-.4 0l-.4-1c-.4-1.9-.7-2.4-1.5-3-1-.8-1.2-1.3-1.3-3l-.2-1.4-.3-.7v-.4l-.9-.7c-.8-.7-1.3-1.9-.7-1.9q.3.1-.2-.4t-1-1.3l-1.2-2.5q0-.3-.3-.7l-.3-.7q0-.3-.6-1t-.6-1l-.2-.6-.3-1.3q0-1-.3-1.4c-.4-.6-2.5-.4-3.2.3q-.3.3-.7.2l-1.1-.2-1.1-.4c-.6-.2-1.8-.5-2.2-.4q-.4.1-.5-.2t-.7-.4q-1.5 0-1.8-.7-.1-.3-.5-.3l-.4-.2c-.3-.4-1.9 0-2.6.6q-.9.8-.4 1.8c.3.4-.4 1.3-1 1.3l-1-.4c-.6-.5-1.7-1-2.4-1q-1 0-1.3-1l-.5-.6-1-.5-1.4-.2-1.5-.3q-1.2-.7-1-1.1l-.1-.1q-.3 0-.3.2c0 .2-.5.1-.7-.2q-.2-.3.3-.8l.8-.3.3-.1q0-.2-.2 0v-.6q0-.8-.3-1-.7-.2-.1-.9l.2-.5v-.1h.2q0-.6-.5-.2-.5.5-.5 0t-.9-.6zm32.4 54.8v.8c0 .2-.3 1.1-.5 1.1l-.1.2-.3.4q-.5.3 0 .5.6.5-.7.3h-1q-.5.4-.3-1.4c.2-1.8.2-1.8.9-2l.8-.4c.1-.2 1 .1 1.2.5m-5.9 6.5.2.6v.3q0 .4.2.7t0 .4c-.4.1-.2.7.2.8q.6.3.6 1.1l.4 1.2c.5 1 .5 1 0 .8q-.4-.2-.3-.5 0-.2-.2-.6l-.2-.5-.5-.9-.6-.8v-3.6zm6.1 7.8.3 1q0 .9.2 1c.2.3.3 1 0 1.1s0 2.5.2 2.6l.2.2q0 .2-.2.1h-.2q0 .3-.2.3v-.9c-.2-.3-.5-1.6-.5-2.1.2-2 .1-2.6 0-3l-.3-.5q.1-.4.5.2M240.7 221.1l-.2 1q0 1-.6.5h-.3q0 .3.2.4h-.2q-.5-.2-.4.7l-.1.3-.2.5q0 .3-.3.2t-.2.2c0 .3-1.2 1.1-2.1 1.4l-.9.4-.5.1q-.4 0-.4.5t-.4 1c-.3.5-.3.9 0 2.8.3 1.2.3 1.2-.2 2.2l-.7 1c-.6.4-.8 2-.4 2.8q.2.4.2 1.2l.1.8.2.4q.1.8.9 1h.3c0 .3.9.3 1.2 0l.8-.3c.5 0 1.2-.6 1.2-1.1l.2-.6q.3-.4.5-1.3l.5-1.6.5-1.4.9-2.5.7-2.3q.3-1.6.5-1.3c.2 0 .2-.1 0-1.4l-.1-.8.3.4.4.4.2-.5q.3-.5.1-.9l-.1-1-.2-1.4c-.2-.7-1-2.1-1-2.2z"/></g><g fill="#328"><path d="M257.1 90.8q-1.5.4-.8.5.4.2 0 .2-.9 0-.3.8.7.7 1 .1 0-.1 0 0 0 .3.3.3t.2-.3h.2q.1.3.4.2l1 .1c.8.3 3.2.6 4.3.6q1.4-.1.6-.4-.4 0-.4-.4.1-.5-1.7-.6t-1.5-.5q.3-.1-.9-.4c-1.6-.4-1.7-.4-2.4-.2M268.1 94.5q-.6.4-.4 1 .3.3-.5.2-.7 0-.9.2 0 .1-.7.2h-.5c.2-.3-3.1-.1-3.4.2q-.2.2-1.4.3-1 .1-1.5.4t-.9.2h-.4q0 .2-.2.2t-.3.3c-.2-.2-.8-.2-.9.2v.3h.2q0-.3.5 0l.7.2.3.1c.1.3-1.2.4-1.4.1l-.4-.2q-.3 0 0 .2.6.3-1.8.4h-1.5l.5.4.9.7q.4.4 1.1.5t.8.2l.3.2-.3.1q-.5 0-1-.2t-3.2-.7q-.5 0-.7.2-.3.2.2.3t-.4.2q-.7 0-.2.3l1 .4q.8.3-.3.2-1.3-.2-1.3-1c0-.3-.7-1-1-1l-.5-.2q-.4-.3-.6 0-.2.1.4.3.5.2.7.1.2 0 0 0l.1.4q.4.3-.3.5-.5 0-.5.3l-.2.3q-.1 0 .8.6 1.2.4.8 1 0 .6.3.8t.3.5q-.1.2 1.3 0 1.4 0 .5.2-1.3.3-.3 1 .5.5.3.7l-.3.5q.1.5-.5.5-.5.2-.5.4.1.2-.5.2t-.7-.3q-.2-.2 0 0 .3 0 .6-.7l.5-.7v-.5q.2-.6-.7-.9l-.7-.5-.4-.8-.4-.9q0-.6-1-.9-.4 0-.3-.3.4-.4 0-1.2-.2-.3-1.4-.4-1.1 0-.6-.2.8 0 .3-.2c-.4-.4-1.7-.4-1.6 0l-.1.4q-.3.2-.3.8.1.7-.5 1-.9.5 0 .9.4.1.4.7 0 1 .7.8.2 0 .7.2l.9.5q.6.3.3.6l-1.4-.4q-2.5-1-1.2.1l.6.8c0 .6-1.8 2-3.6 2.6l-1 .5.8 2.3q1.4 3 1.5 6 0 1.4.8 2.1c1 .8.5 2.2-.6 2.2q-.6 0-.8.3-.4.3 0 .9l.9 1q.8 1.4 1.9 0 .9-1 1.6 0c.2.5.2.6 0 1.3-.1.8-.1.8.2 1l1 1q-.5.5.9.9c1 .4.8 1.3-.4 1.2l-.7.1q-.4.5-.9 0l-.6-.2-.3-.2q0-.3-.8-.1-.7 0-1.8-.3c-1.1-.4-3.2-.5-3.5-.1l-1 .2-1.6.1c-.6.2-.6.2-.5 1s.3 1.1 1 2q.7.6.6 1.2t.4 1l.4.5q.1.5 1.2.3.6-.1.8.4c.3.4.5 2 .2 1.9l-1-.2q-.9-.1-1 .4v.5q0 .2-.5.2-.7 0-.3.3 0 .3.4.4.3 0 .5.5l.4.5q.2 0 .2.3 0 .4.2.3.1 0 .4 0 0 .3.6.4.7 0 .5 1l.1.7c.3 0 .8 1 .7 1.4-.2.5.2 1.2.6 1.2q.3-.1.1.5 0 .6.2.4.7-.2 1 1.6l.2 1.3q.3.4-1 .6c-1.4.3-2 .2-3-.6l-1-.5q-1 0-1-1.2-.2-.7 0-.8t.3-1c0-.8 0-.8.5-.8q.3 0 .4-.2h-.5c-.9 0-4.3-1.8-5.8-3l-1-1-1 .1c-.8.1-1 0-1.7-.4l-1.4-.6q-.6 0-1.1-.4t-1-.2l-.4.2.3.4 1.4.9q1 .4 1.3 1 .9 1.8-2.6 1.9l-1.6-.1q0-.2-.5-.2t-.6-.2q0 0-.4 0-.3 0-.5-.3-.2-.4-.6-.2-.3 0-.6-.3c-.2-.3-.4-.3-1.7-.2q-2 .3-2.8 1.1-.2.3-1.4.1-2-.2-1.4.5t-1.8.7l-1.6.1q0 .2-.3.1l-.2.1q0 .2.3.2l.2.4q0 .6.6.5.2 0 .2.2v.5l.2.5v.1q-.4-.4-.6.2 0 .4.6.6l.4.2q-.3-.1 0 .4l.4.5q0 0-.2.3-.6.3.5.2.5 0 0 .1l-.2.3h.5q0 .3.2.3t.3-.2c0-.3.8 0 1.2.3q.3.5 1 .3 1 .1.7-.7c0-.5 1.3-.1 2 .6.6.5 2 .3 2.4-.3q.5-.6 1.2-.2.3.3.6-.1.8-.5.3.2-.3.3-.1.4v1.1c.2.2.4 1.4.2 1.5a14 14 0 0 0-1 3.2q-.3 1.5-1.2 1.5h-1q-.6.1-.5.7c0 .8.3 2 .7 2.3l.3.6c0 .3 1.2 1.7 1.4 1.7l.4-.3.6-.3.3.3q0 .2.2.3l.1.1.3.5.7 1q.2.7.6 1c.4.4.9 1.3.7 1.4-.1.1.5 1 .7 1q.3 0 .4.3 0 .2.2.1.2 0 .1.1 0 .2.2.6l.4.7q0 .2.2.4v.7q0 .7.2.9l.2.5q0 .3.3.6l.5.5q0 .3.6.7.5.2.4.4 0 0 .4.3.4.1.4.7t.3.8l.3.4.6.7q.7.7.7 1l.1.2.3.5q.3.7-.1.2-.3-.3-.2-.4t-.2 0-.2-.2l-.3-.3q-.3 0-.2.3.2.4-.1 0-.3-.3-.4-.2c-.1.2.8 1.6 1 1.5s.8.6.9 1v.4c.2.2.8 2.1.8 2.4q0 1.2.9 1.3h.8q0-.2.3-.2t.8-.4q.6-.5 1.1-.5c.6 0 1.7-.4 1.9-.7l.6-.2a1 1 0 0 0 1-.4q.3-.4 1.7-1 2.5-.8 2.4-1.3-.1-.7.8-1c1.4-.6 1.5-.7 2.1-.7q.9 0 1-.8 0-.5.5-.5 1 0 1-.7.2-.7 1.1-.9c.3 0 .4 0 .3-1q0-1.6.6-1 .3.5.6 0t-.1-.6q-.4.2.3-.7c.5-.6 1-1.5 1-1.8q0-.3-.4-.3l-.5-.3-.2-.4q-.2 0-.2-.2 0-.6-1.3-.8-2.3-.4-2.3-2.9 0-1.5-.5-.5a10 10 0 0 1-2.6 2.6h-.2q0 .3-.6.2l-.6-.2q0-.2-.2-.2l-.2.2q0 .6-.6.2l-.5-.2q-.3 0-.1-.4c.2-.6 0-2-.2-2.2q-.5-.4-.8.5l-.2.7-.3-.4q-.5-.8-.1-.8l.1.3q0 .2.2.1c.3-.1.2-.6-.2-.7q-.3 0-.3-.2v-.3l-.4-.4-.4-.5q0-.2-.2-.2h-.2q0-.3-.3-.4-.3 0-.4-.3l-.1-.3c-.3 0-1-1.6-.8-2q0-.2 0 0-.2 0-.4 0-.5-.2 0-.2.3 0 .5-.3.8-.7 1-.5h.6q.3 0 .7.5l.4.8.1.2.7 1q.4.7 1 1 .7.2 1.1.6.5.5.8.5t0 .1.4.3.6.3q0 0 0 .1.2 0 .2-.2h.3q.4.2.6.1l.8-.2q1-.1 1-.5c-.2-.3.5-.2.6 0l.4.9q.1 1.1 2.4 1.4c1.3 0 1.8.2 2.4.3.7.2 2.2.2 2.2 0h1.4q0-.3.6 0l1.7-.1q1.7-.3 1.6.4 0 .3.3.3t.4.4q.4 1 1 1.1.1 0 .6.5 1 1 2.1 1 .7-.2.2.1-.4.5-1.1.3-.3 0-.3.2a10 10 0 0 0 2.6 2.5c1 0 2.2-1.2 1.8-1.6-.2-.1 0-.8.2-.8v.4l.1.5q.2 0 .1.1l.2.8q.2.5.1 1l.1 1.3 1 3.6c0 .5.5 1.5.8 2.2a70 70 0 0 1 3.8 8.7c0 .5 1 1.9 1.4 2.1q.8.4 1.2-.8.3-.8 1.4-.6.3 0 .2-.1 0-.3-.3-.3-.4.1 0-.8 0-.4.5-.4.5.1.3-.5c-.2-.9-.2-2.2 0-2.5s.3-1.7 0-3q-.4-2.6.5-2.1.4 0 .5-.3 0-.5.4-.5.9-.1 1-.8 0-.5.2-.5c.3 0 2-1.7 2.5-2.6q.5-.7 1.2-1l1-.8c.4-.3.5-.5.4-1.4q0-.3.2-.5l.6-.3q.4-.3.5 0 .2.5 1.7 0l.9-.2c.6 0 1.3-.6 1.2-.9q0-.3 0-.4.1 0 .2.3 0 .3.3.3.3-.2.4.7 0 .5 1 2 .6.5.6.7l.4.2q.6-.1.6.5l.1.5v.3q-.3 0 0 .2t.3 0q.3-.4.8.9.4.7.3 2l-.1 1.3.5.1c1 .3 1.2.3 1.5 0q.2-.5.8-.8.6-.5.6-.8c0-.6 1.2 1.8 1.3 2.7l.3 1q.3.5.3 1 0 .3.2.4t.4.5q.4 1 0 .8-.2-.1-.2.1t.3.3v.5q-.3.6-.4.3 0 0-.1 0 0 .6.5.5.7.2.3.8-.1.1-.4 0-.3-.3-.3 0l.3.3c.3.1.4 1.3.2 2.3-.2.7 0 2.2.2 2q.7-.6.8.1 0 .6.2.2t.2 0l.5.8q.7.8.2.8-.3.2 0 .4.4.3.3-.1 0-.5.3 0l.2 1.1.1.8q.2.2.3.9t.5 1.1.5.9 1.2 1.2q1.8 1.2 1.6 1.4v.1q.5-.3.5.2 0 .3.1.1.3 0 .3.3t.2.3v-.3q0-.4.2-.2t.4 0q.1-.5-.6-.5-.5 0-.1-.1l.2-.3v-.2q-.2 0-.2-.4l-.5-1c-.4-.5-.5-.7-.5-1.8q0-1.2-.2-1.7c-.2-.5-1.5-2-1.7-2l-.5-.5q-.3-.6-.6-.4-.8.1-1.2-1.3l-.4-1c-.3-.3-.5-1.3-.3-1.3s.2-.5 0-.7l-.1.3q-.2.8-.7.3c-.3-.3-.1-1.7.2-2.8q.3-1 .3-2c0-1 .1-1 .6-1q.5-.2.4.6-.1.7.6.6 1.2 0 1.3.7 0 .2.3.2t.6.5l.3.8c0 .3.6 1 .8 1v-.3q0-.1.1 0 .2 0 .2.6.2.7.4 0 0-.6.3-.2l.6.4q.4 0 .1.3c-.3.1-.2 2 .1 2l.5-.3q.2-.4.9-.8 1-.5 1-1.5 0-.2.2-.1c.3 0 1.2-.5 1.7-1l.6-.4c.3 0 .5-.8.4-1.5v-.4q.2 0 .2-.3l-.1-.4-.3-.9-.3-1.3-.3-.8q0-.3-.5-.7l-.5-.7-.3-.3a10 10 0 0 1-3-3c-.5-.6-.6-.8-.6-1.5q0-.8.2-.8l.5-.7.5-.5.2-.2.3-.2q.2 0 .2-.2c0-.4 1.1-.8 1.6-.6l.7.1q.4 0 .3.3c-.2.4.4 1.6.8 1.6q.6 0 .3-.9-.3-.3 0-.2l.1-.3q0-.3.3-.3l.3-.1h.4q.2 0 .1-.3l.4-.1h.5q.9.3.7-.1v-.2h.2q0-.3.2-.1.5 0 .4-.8 0-.6.1 0c.2.5.8.7.8.3l.7-.5.6-.2v.2q.3 0 .3-.2l.1-.1q1 .1 1.1-.5.3-.5.5-.6t.7-.6.6-.5c.2 0 .6-.7.4-1q.6 0 .5-.5h.3q.4 0 .4-.3t-.2-.2c-.2.1-.4-.6-.2-.8v-.3q0-.2.2-.2.1 0 .2-.3l.1-.4.2-.5q0-1 .4-1 .3 0 .3-.2v-1.2q-.2-.2 0-.2t.2-1v-1h-.2v.4q-.2.5-.6.1l-.7-.2c-.6.2-.4-.3.3-.6q.8-.3.3-.6-.2 0 0-.2 0-.1-.5-.2-.9-.3-.4-.7h.2q0 .3.2.3l.2-.1q0-.3-1.5-1.3l-.4-.6q-1-1.8-2.2-2.3-1-.5-.7-.8.1-.5.5-1 .8-.7.3-.5l.4-.4q.5-.6 1-.6.6.1.5-.4c0-.5 0-.5-1-.6q-.8 0-1.2-.3c-.3-.2-1.2 0-1.1.1q0 .2-.2.5-.2.4-.6.1-.5-.2-.5-.5 0-.7-1-.9-1.2 0-1.3-1 0-.5.2-.3.9.3 1.2-.5 0-.5.6-.8t.5-.6q0-.7 1-.6 1 .3.5 1-.4.9 0 1.1.6.3.1.5-.3.5.1.5.3 0 .8-.7.8-.7 1.5-.7h1l.5.1.4.1q.4.1.4 1.4 0 1.1.2.9 0-.3.1-.1c0 .2.9.6 1 .4q0-.2.4 0h.3l.4.3c.5.2.6.7.3.7q-.4 0 .3.8 1 1 .8 1.1c-.2.2-.2 1 0 1.2l.2.5q-.2.5.7.3.8 0 .8-.2l.4-.1.4-.2q0 0 .2 0c.3 0 1-.6 1-1 0-.7-1-2.5-1.9-3.3l-1.1-1q-.4-.5-1-.9-.5-.3-.9-.7-.3-.4.2-.7t1-.9c.3-.6.4-.6.1-1-.3-.6-.2-1.5.1-1.4q.2 0 .2-.3t.2-.3q0 .1.3-.3l.2-.3q0 .3.3 0 .3-.5.2 0c0 .3 1.2.6 1.7.4s1.5-1.3 1.5-1.7c0-.5.5-2.2.7-2.4l.2-1.8.1-1.9q.1-.3-.2-1.4l-.6-1q-.2 0-.1-.3 0 0-.2-.3c-.7-.4-1.3-2.3-.9-2.3s1.7 1.1 1.8 1.5q0 .3.6 1c.4.2.8.9 1 1.3l.8 1.2q.5.4.7 1t.4.7l.3.5q.2.6.7 1l.5.6v-.6q-.4-.7.3-.6.4.1.8.5.2.5.3 0c0-.3-.6-1-.9-1l-.5-.3-.9-.7-.7-1-.3-1c-.2-.5.6-.4 1.4 0q1 .8.8.4l-.5-.5-1.3-1-3.9-3.8c-.3-.6-1-1.4-1.2-1.4l-.5-.4q-.9-1-1.3-.8-.4 0 .3.4.7.3.2.7t0 .5c.3.3.8 1.1.7 1.3 0 .1-1-.9-1-1.2l-1-.7-1.5-.7c-.6-.3-2-.5-1.9-.2s0 1-.3 1l-.2-.4q0-.3-.2-.3t-.3-.4-.2-.3q0 0 0-.2c0-.4-.5-.9-.9-.7h-.5l-.3.2q0 .3 1.2.2.3 0 0 .1l.2.4q.2.3 0 .3v.4q0 .4-.3-.2c-.3-.5-.4-.6-1.2-.7-1.4-.2-1.5-.2-.8-1q1-1.5.8-1.5c-.2-.1.5-1.7.7-1.7v-.4q-.2-.5 0-.6t.3-.5q0-.3.4-.5c.5-.2 3-.3 3 0l.5.1.3-.1h1.3c1.3 0 1.3 0 1.3-.4q-.1-.4.1-.3 1.2.4 1.7.3l.5.1q.6 0 .2.3-.3.5.6.5 1.8 0 1.7-.2 0-.2.4 0 .5 0 1-.2 1-.3-.7-.7-1-.2-.5-1.2l.1-1q-.1-.6.8-.6h1.8q.4 0 .4.2c0 .4.7 1 1 .9q0-.2.4.3.3.4.3.1 0-.2.2-.1.1 0 .2-.4.2-.6.7-.7.7-.2.3-.3-.1 0-.6-.5-.7-.5-.1-.6c.4-.1 1 0 .8.2s.8 1.4 1 1.4q.4.1-.2 1-.4.2-.3.7l-.1.6q-.2.3-.1.7.1 1.2-.5 1.4-.2 0-.2.2l-.4.1q-.6-.1 0 .4t.4.9q-.2 1 2.7 3.5l1.5 1.4 2.7 2.3.9.9.5.3.2-.5q.4-1-.2-1.7-.4-.6 0-1h.7q.5.3-.4-.5-.8-.7-.6-1 0-.5.7-.3.7.1.6-.2t-.8-.7c-1-.8-1.4-1.8-.5-1.4q.5.2.6.1c.1-.2-.7-1-1-1s-1.2-.7-1.2-1q-.2-.7-1.1-.6c-.6.2-1.3-.5-1.2-1.2q.2-.5-.3-1t0-.4l.4-.2h.3l.1.3q.5 0 .4-.4c-.2-.4.4-.3.7 0q.6.8.7 0c0-.7 1.6-.7 2.9-.1q1.4.6.9 0-.2-.3.2-.7t.5-.8.6-.6.5-.4l.2-.1q.3 0 .5-.3.3-.4 2.2 0 .6.1.5-.2t-.4-.5l-.6-.3-.7-.4-2.5-1.4.3-.5q.6-.8-.7-1.2-.6 0-.6-.3.2-.2 1 .3c.9.4 1.3.5 2.2.5s1.4 0 2 .4q.9.5 1.3.5l1.4.3c1 .3 1 .3 1.2 0q.3-.3.1 0 0 .6.7.2.4-.2 0-.3t-.4-.3v-.1l-.6-.3q-.5-.5.1-.4t.6-.3-.2-.1q-.3 0-.2-.1 0-.3-.4-.5c-.8-.5-3.7-1.2-5-1.2a98.5 98.5 0 0 0-16-3.5c-2 0-4-.2-4.4-.3q-.5-.1.1.3l.7.5.8.3.6.4h-1.2q-.1-.2-1-.3l-.9-.3h.3l.3-.1v-.2h-1.4l.6-.2.6-.1h-.6q-1.3-.2-1.1.1 0 .3-.8.3h-4.7c-.6 0-2-.3-2-.6q-.1-.4-2.2-1c-1-.2-1.7-.2-3.8-.1-2.1 0-2.8 0-3.3-.2l-1.4-.3q-1.7-.2-1.5-.5c.3-.4-3-.9-3.6-.4q-.2 0-.2 0c.2-.3-.1-.4-3.3-.7-3.5-.3-3.3-.3-2.8 0l.4.3h-.6q-.7 0-.6.3l.6.2q.4 0 .3.1 0 0 .3.4l.5.2-.5-.1-.8-.1h-1.4l-1.5.2h-1.1l-1.2-.2q-.3 0-.2-.2l-.2-.1v.3c.3 1.1.3 1-.3 1-.9-.2-2.2-.9-2.8-1.5l-.8-.5q-.3 0-.3-.2c0-.5-3-1.4-3.3-1h-.3l-.6-.1-1.2-.2q-.9-.3-.8 0-.1 0-.2 0l-.2.1.3.4.4.3h-3l-1.3-.1q-.4 0-.2-.2.3 0 .1-.3H283c-.2.1-1.4-.5-1.4-.8q0-.3-.8-.3t-.8.3q0 .4-.4.3h-.6q-.4 0 0 .3.1.3-.5.5c-.9.2-1.7.2-1.5 0l.5-.2q.3 0 .5-.2t1.6-1l1-.6c0-.4-.7-1-1.2-1h-.2q.3 0 0-.3-.7-.5-.5-.1 0 .4-.5-.1c-.3-.3-.7-.3-2.4-.3l-2.5.1h-.3q0-.7-.5-.9-.2 0-.1.2c.2.2-.6.2-1-.1s-2.8-.5-3.3-.3m13.2 4.1q.3.2-.3.2l-.6-.2c0-.2.6-.2.9 0m-26.7 6.5q.5.7-.3.1l-.6-.3q-.1 0-.3-.2c-.2-.2.9 0 1.2.4m105.8 2.3q0 .1-.1 0-.5 0-.1-.1zm-3.2 2.9q0 .3-.6 0-.3-.2.1-.2zm-59 12.3c.7 1.6.8 2 .6 2.2q-.3.4-.1 0l-.1-.2q-.2 0-.2.3t.3.3.1.2l-.3.4q-.1.4-.8.6-.8.4-.7.7.2.5-.6.7h-1q-.6-.3 0-.2c.5 0 1.2-.4 1.2-.7l.3-.5.3-.6v-.3c.6-.4.8-1.7.4-3-.1-.5.4-.4.6.1M265.6 135q0 .1-.2.2l-.2.4q0 .2-.3.2t-.2.6q0 .6-.3.3c-.3-.3-.3-1 0-1q0 0 0-.1.2-.5.8-.8zm1 0h-.4q-.2-.1.2-.1zm2.3.2q.3.1-.2 0-1-.2-.4-.2.4 0 .6.2m1 0h-.7l.4-.2q.3 0 .3.2m-20.4.2h-.3.3m-1.3.8q0 .1-.2.2v.1q0 .2.4.1.3 0 .4.3 0 .4.4.7v.7q-.3.4-.6.4l-.5-.1q-.2 0-.2-1l-.2-1v-.3q.5-.4.5-.1m-.6.8q.2 1-.3.3t0-.6q.2 0 .3.3m-.5 1.4s-.4-.8-.4-1.2l.3.4q.1.6.1.8m-4.6 3.8q.1.4.7.8l.3.4q-.2 0-.5.2t-.3 0l-.5-.1q-.7-.1-.8-1c0-.8.7-1 1-.3m-21 19.3q0 .3-.3.3v-.3l.1-.2zm65.2 12.9v.1l-.2-.1v-.2q.2 0 .2.2m-55 4.7-.2.1q-.2 0-.1-.1l.1-.2zm79.5 8.1v.3q-.2 0-.2-.2 0-.5.2 0m3.6 1.6q.3.3.1.3l-.4-.3q0-.3 0-.4z"/><path d="M305.4 98.2q.2.5.8.5.4 0 .4.2.1.2-.2.2t-.2.2q0 .1.4 0 .5 0 1.8.2 2.1.1 1.4-.2c-.4-.3-2-.7-2.6-.7q-.5 0-.9-.3c-.3-.2-1-.3-1 0M343 136.7l-.1.2q-.2 0-.2 0 0 .3.2.2c.5-.2 1.6 1.4 1.4 2v.3q.5.4-.2.3-1-.2-.5.3.4.3 0 .4-.1 0-.2.7v.3c.2-.3 1 .2 1 .7q.4.8.8.2 0-.3.3-.3.6 0-.4-.6l-.7-.4q0-.3.4 0 .2.2.6 0 .2-.3 1.2.2.9.3 1.2.2 0 .3.2.3 0 0 0-.4-.2-1 .7-1 1 0 1.1-.6 0-.2-.3-.1-.2.2-.2-.7 0-.7.3-.7h.2l-.3-.3q-.4-.2-.5.6c0 .7-.4.7-.4 0q0-.7-.4 0c0 .3-.1.3-1.3-.2q-1.8-.6-2.2-1c-.1-.2-1.3-.9-1.5-.9q-.1 0-.2.3"/><path d="M345.6 142.4q0 .3-.2.2t0 .3q0 .4-.2.6l.1.4q.3.2.2.6l.1.2q.3 0 .5.4c.3.5.3 2 0 2.4q-.2.2-.2.7 0 .3-.4.5-.5.1-.6.4c-.2.2-.5-.3-.4-.7q.1-.6-.5-.2-.3.2 0 .6l.2.2.1-.2c.1.1-.3 1-.5 1s-.1.7 0 .7q.3 0 0 .3 0 .3-.3 0h-1.1l-1.3.2q-1 0-1 .2c0 .3-.8 1.3-1.2 1.4q-.2 0-.3.4t-.2.6l-.6.5-.4.3.5.5q.4.5.6.4l.4 1 .5.8q0 .3.4.3.3 0 .4.3l.3-.2c.4-.4.4-.6.4-1.6v-1.2q-.3-.7.5 0 .9.9.9.3c-.1-.4.2-1 .5-1l.2.2q.1.5.5-.2.1-.5.1-.7l.1-.3.2.1c0 .3.7 1 1 1q.4.1.5-.5.2-.5.4-.5c.4 0 .3-.5 0-.6q-.4 0-.4-.3h.3q.4 0 .4.2h.8q.8.1.7-.4v-.4l.3.5q.6.7.5-.2 0-.6.6-.1.3.3.6 0l.1-.4.1-.5q.2-.2-.1-.6l-.4-.7v-.6l-.1-.5-.4-.7-.3-.6q0-.2.3-.2h.3l-.1-.2q-.2 0-.2-.9c0-.8 0-.9-1.1-2l-1.1-1.3-.2-.2-.5-.1q-.3-.1-.3.1m.8.5-.2.2h-.3q0-.2.3-.2zm-3 9.6q.1.4-.6.3-.5-.1-.3-.4.6-.5.8 0m-1.3.5q-.3.5-.7 0 0 0 .7-.3zm-1.5.3v-.4zm.5 0q-.3.9-.8 1l-.1-.3q0-.2-.5-.2t-.6-.3h.9q.9 0 1-.3.1-.7.1.1M220 151l-1 .2q-.6 0-.6.2l-.4.1c-.5 0-.3.6.3.8q.4.4 1 0 .4-.4.6-.4v-.3l.3-.4q.6-.5.2-.5zM331.7 176c-.1.2-.1 2.7 0 3.2q.2.6 0 0-.9-.8-.3 1.3.5 1.6 1.1 1.6l.2-.3q0-.3.1-.2l-.1.5q-.4.9.2.9h.1c0 .3-.5.3-.6 0l-.3-.3q-.3 0 .2.7l.8 1.2q.5 1 .9.4t-.3-1.4q-.4-.3 0-.5c.5-.3 1 0 .7.1q-.3.2 0 .5t.4 0q.2-.5.4 0 .1.2.3.2v-.5q-.7-.9.6.3 1 1.1.5 1h-.1c0-.2-.5-1-.6-1-.3 0-.2.6.1.7q.3 0 .2.8 0 .7.2.4h.5q.9.7.4-.2-.2-.4 0-.6l.2-.6q.1-.5-.4-.6-.8-.4-.3-.5l.3.1q0 .4.5 0 .3 0 0-.4-.4-.7-.5-.1.1.3-.5 0t-.7-.2q-.1 0-.2-.2 0-.3-.9-.2t-.8-.1q-.2-.4.7-.3l.2-.1c0-.2-.6-.5-.9-.6q-.4 0-.3-.8 0-.5.3-.5c.5 0 .7-1.4.3-2q-.3-.4-.3-1 .1-.9-.5-.6l-.7-.1c-.2-.3-1-.3-1 0"/><path d="M337.6 185q0 .2.5.6t.4.6q0 .3-.3 0-.5-.6-.3.5 0 .6.3.6t.3.5.4.7.5.4l.1.6q.2.4-.3.3l-.4-.1q0-.2-.2-.2v.6q0 .6-.1.4-.3-.1-.3.2-.1.6-.6 0-.2-.6-.7-.2-.5.2-.5.5t-.4.2l-.5.2-.2.8q-.2.4-.1.7.3.4.5-.1l.3-.6q.2-.6.2 0 .1.6.5.2h.3q.3 0 .3-.3 0-.5.3-.2.4 0 .3 1t.5 1.3l.8.4q.4 0 .4.5.2.6.5 0l.1-.5q0-.3 0-.8-.6-.8 0-.8.3 0 .3.2l.2.7q.4.5.3-.3 0-.6.2-.8l.1-.4c0-.7-.7-3-.8-3v-.5q0-.7-.3-.5-.3 0-.3-.2-.3-.7-.4-.1 0 .2-.3.2t-.1-.2v-.5q-.4-.8.4-.6h.5l-.4-.4-.3-1q0-.9-1-1-.8-.1-.7.4"/><path d="m334.6 185.8.1.2q.2.3.1 1-.1 1.4.4.8.3-.3.3 0h.3q.5.1 0 .8-.5.2-.2.6t.4.3l.3.3q.3.6.6-.4l.4-.6q0 0 0 .2.2.3.9 0c.4 0 .3-.6-.2-.8q-.4-.2-.4-1 0-.6-.3-.6l-.4.2q0 .1-.3.2-.3 0-.2-.4t-.3-.5-.9-.2q-.7-.4-.6-.1m2.6 1.6v-.2q0-.2 0-.2zm-.1 1.2-.2-.1-.1-.4q0 0 .1 0zm.3 0-.1-.2v-.2zm-.7.3v-.1q0-.3 0-.2zM331.4 187q-.1.6-.4 1l-.3.7q0 0 0 .1c-.2 0-1.5 1.3-1.7 1.7l.1.6q.2.2.2 0l.8-1 .9-1c0-.3.7-1 1-1.1q.8-.2.2-.6-.4 0-.4-.5t.2-.3l.2-.1-.4-.2q-.3 0-.4.7M280.7 188.9v.2q.3.1.3.4t-.3.3h-.3l.2.2c.2 0 .2.8 0 1-.1.1.2 2.4.4 3q.4.8 1.4.3 1.2-.5 1-1.4c0-.7-.6-2.3-1-2.7q-.3-.2-.3-.4c0-.3-.8-1.1-1.1-1.1q-.2 0-.3.2M328.8 192.4l-.4.7q-.1.7-.3.7t-.3.5l-.6.7q-.5.4-.3.6.3.3-.2.2t-.7.3l-.6.2q-.3 0-.3.4-.1.4-.7 1.1c-.6.7-.8.9-1.5 1l-.8.2q0 .2-.3.1l-.2 1-.1.5q-.1.4-.6 0h-.6q-.3 0-.4-.3-.4-.5-1 .6c-.3.6-.3 1.2 0 2.7q.4 1.7.9 1.4.4-.1.3.5l.1 1.4c.2.8.1.8 1.4.8q.8 0 .7.3.1.7.5.4 0-.3.4-.1l.6-.3.4-.2q0 .2.3.2l.2.2q0 .2.4.1.8-.3.8.6-.2.9 1 0l.8-.4.2.4q.2.6.4-.1 0-.5 0-.8l.2-1q.4-.6.2-.6-.4-.4.5-1.4l.8-.6q0 0 0-.8-.1-1.7 1-1.6 1.4.2.2-1-.8-.6-.6-1 0-.3-.3-.8-.4-.5-.1-1v-.6q-.4-.3.7-.7 1-.3.2-.5t0-.4c.3 0 1-.3 1-.6l-.5-.3q-.9-.3-1.1-.7 0 0-.4 0l-.2-.4q0-.3-.4-.7l-.3-.6q.2-.5-.4-.3"/><path d="M300.9 195c-.4.5.2 1.2 2.2 3.1q.9.8 1 1.3 0 .3.7.8l.7.6c0 .4.6 2.1.9 2.2s1.7 2.4 1.8 3.3q0 .7 1.3 1.9.5.4.5.6s.6.8 1.5 1.6c1.5 1.5 1.5 1.5 2 1.3q.6-.2.8 0t0 .8q-.3.7-.4.2-.2-.2-.3.3 0 .3.6.3 1.1 0 1 .6l.6.3 1 .2q1 .4 1 .3c.2-.2 1.6 0 2.2.3s3.2.7 3.6.5l.3.1q0 .2.2.2l.7.1q1.1.5.8 0 0-.4.3-.3.3 0 .3.5t.3 0q.2-.3.3-.2 0 .3.6.3l1 .3h1.2l.6-.3-.2-.1h.3q.8.4 1.2 0 .3-.3.4-.1c.4.3 2.8.3 3.8 0l1.2-.2.4-.1h.5c.2 0 1.3 0 1.5-.3q.4-.4-1.8-.2l-1-.1q0-.2-.4.3t-.6.3c-.2-.1-1.2-.3-2.2-.3q-.8 0-1 .2 0 .3-.1 0h-.3l-.5-.1.1-.2q.2 0 0-.2 0-.2-.2 0c0 .2-.7.2-1 0-.1-.2-.9-.1-1 .1q0 .3-.3.2l-.3.1q0 .2-.3 0-.6-.6-.9.1 0 .3-.4.4-.3-.1 0-.4c.3-.2-.5-.7-.8-.6q-.6.2-.7-.3c0-.3 0-.3-1.2-.3q-.9 0-.8-.3t.2-.2c.5 0 1.5-.3 1.4-.5q-.1-.2-1.3-.1-1.2 0-1.7-.3t-.6-.1-.3-.2q-.3-.5-.6.1-.3.4-.7.4h-1.1q-.8-.1-.9-.5l-.5-.4-1-.3q-.4-.3-.6-.1h-1.2v-2.4c.2-1.7.3-2 .7-1.8s1 0 1-.4q0-.3-.1 0-.2.3-.3 0v-.3q0-.1-.3-.2-.4 0-.6-1 0-.9-1-.1-.6.6.1.6.3 0 .3.2t-.3 0h-.5l-.2-.2-.2-.4q-.3-.3-.3-.8.1-.6-.4-.5t-.7-.2q-.4-.2 0-.5.4-.8 0-1.3-.2-.2-.1-.5 0-.3-.2-.1-.3 0-.3-.2t-.4-.3q-.4 0-.4-.4.1-.2-.7-.3l-.3-.3q0-.3-.3-.4l-.5-.2-.6-.1q-.3 0-.4-.3 0-.3-.3-.3-.1 0-.2-.2.1-.3-1-1l-.8-.6-.4-.2-.1-.3-.2-.5-.5-.6q-.3-.4-1.2-.4t-1.2-.3q-.6-.6-1-.2m29.2 20.7-.2.1q-.2 0-.3-.2h.3zM271.6 197.5q0 .5.2.6v.3l.1.4.2.3h-.2q-.2-.5 0 0v.6q.1.6.7 0 .3-.2-.1-.3-.3-.1-.3-.2c.2-.3 0-1.4-.3-1.3q0 .2 0-.4l-.1-.5q-.2 0-.2.5m.9 2.2-.2.2-.2-.2.2-.2zM343 200.3l-.2 1.1q0 .6-.2.7l.1.2q.3.1 0 .2v.5q0 .5.2 0 0-.4.1.2 0 .5-.3.4-.6-.3-.4.5c0 .4 1 .6 1 .2q0-.3.3 0c.3.6.4.1.1-.5q-.6-1.4.4-1 1 .2.2-.4-.6-.5 0-.6c.2-.3.4-1 .1-1q-.1 0-.5.2-.5.4-.4-.4 0-1.3-.5-.3"/><path d="M338.9 201.2q-.6.7-1 .6l-1.5-.2q-1.2 0-1.3-.2c0-.2-.6-.3-.8-.2l-.3.4q0 .3-.3.2c-.2-.1-.8.6-.8 1q0 .3-.2.3v.5l-.3.9-.2.9c0 .6-.5 1.6-.7 1.6q-.2 0-.1.5v.7q.1.3.5.2t.4.6l-.1 1.4q-.5 1.4.7 1 .7.2.6-.6c0-2.7.1-3.5.4-3.6q.8-.2.3.7-.2.6.3 1t.4.7q-.2.7.4.8l.5-.4.5-.3v.3q-.8.8-.2 1.3.3.5.7 0 .3-.3.2-.6v-.4q.2 0 .2-.7t-.3-.6q-.7-.1-.7-.8l-.4-1.2q-.6-1-.4-1.1.2-.3.4-.3t.7-.5.7-.4q.4 0 .4-.3 0-.7-1-.3l-1 .2q-.6 0-.9.5-.6.5-.8 0l-.4-.5q-.4-.4-.2-1c.1-.8.3-.8 2.4-.7 3 .2 3.4.2 3.4-.2l.5-.7.3-.9q-.1-.6-1 .4M344.1 207.3l-.6.3q0 .2-.1 0 0-.3-.4 0-.6.7 0 .5.2 0 .2.3-.2.6.6.2.5 0 .6-.4 0-.3.3 0h.7l.9.3q1 .7.8 0c0-.9-1.3-1.4-3-1.2M341.5 215.4l-1 .2q-1.1 0-1.4.4-.3.3-1 .7t-1 .7l-.3.7q-.3.3 0 .3c.3.3 1.4-.2 2-.9q.7-.6 1.4-.8c1-.3 2-1 1.9-1.2q-.3-.3-.6-.1"/></g><g fill="#8ce"><path d="m348.5 204-.8.4q-.3.3-.3 0c-.2-.1-.8-.2-.8 0s.7 1 1 1q.8.1.9.5 0 .7 1.5.7h1q-.2.3-.6.2t-.6.1-.5.2q-.6-.1-.8.2 0 .2.4.4.4 0 .4.4l.2.3q0 0 0 .1c0 .3.2.9.3.8h.5q.2.2.3.2v-.3q-.3 0-.1-.3 0-.3.8 0l.9.6q.3.2.8.3c.7 0 3.2 1.3 3.2 1.5q0 .2.2.5l.2.7.1.3q.2 0 .2.6t-.3.5c-.3 0-1.2 1.1-1.2 1.5s1.5.3 1.7 0l.7-.2c.6 0 .7 0 1.2.8.7.8.7.8 1.6.8h1q.1.2.5 0 .3-.1.2.2l-.2.5v.2q.4 0 .4-.9 0-.3.2-.3t.2-.3.1-.1.2-.4c0-.6 1.2-1.5 1.6-1.1l.8.3q.6.1.8.5l.2.4q.2 0 .2.3l.2.6q.3 0 .2.3t.2.2q.2 0 .3.4t1 .6l1.2.2q.5 0 .9.2c.4.3 1.7.4 1.8.1q0-.2 0-.2h-.4q-.3 0 0-.1t-.5-.4q-1-.4-.5-.5t-.3-.4q-.6.1-.4-.4t-.5-.3q-.5.2-.7-.6-.2-.7-.9-1.4-.5-.5-.6-1 0-.3.6-.3t.6-.3c0-.4-.6-1-1-1q-.2 0-.5-.3l-.7-.3q-.6 0-.4-.6l.2-.4q.2 0 .2-.3t-.3 0-.6-.2l-.3-.5q0-.2-.2 0l-.4-.3-.6-.2-.5-.3-1.2-.5-1.6-.6q-.7-.4-.9-.4h-.2l-.7-.3q-.7-.1-1.8-.7c-1.1-.6-1.2-.6-1.7-.4q-.5.2-.6.5t-.5.3-.5.2l-.3.5-.5.7-.6.3q-.4.1-.6-.8l-.3-.6q-.3.3-.4-.3 0-.5.2-.2l-.1-1q0-1.1-.5-1-.2.1-.8-.2c-.8-.4-1-.4-1.8 0M361 219l-.2.7-.5 1q-.4.6-.4 1.3l-.2.9-.3 1.2a9 9 0 0 1-1.1 3.7l-.3.5c0 .4-.6.7-1 .7q-.4 0-1-.6l-1-.7q-.4 0-.6-.4t-.4-.5-.4-.4q-.3-.7-.4-.2 0 .3-.8-.5l-.8-.8.3-.3.5-.8q0-.3.3-.3.2.2.1.4.2.4.8.3l-.1-1q0 0-.4 0-.2.4-.2-.2 0-.3.2-.4l.6-.7q.4-.8.1-1-.2 0-.1-.3l-.1-.2-.2.1-.4.3q-.3 0-.2-.2.1-.5-.6.2-.6.4-.7.1l-.6-.2-.6-.2q-.2-.2-.4-.1-.2 0-.2-.3 0-.4-.2 0-.2.3-.4-.1 0-.2-.3-.2t-.2-.2q.1-.5-.4-.2h-.4l-.2.1c-.3.2.1.7.4.6q.5 0 .3.8-.2.3-1.1.1h-1l-.1.2c-.4 0-1.2 1-1.1 1.3q0 .3-.3.4t-.3.4l-.4.6q-.4.4-.1.5.4.6-.6.5h-.9q-.3.4-.1 0 0-.3-.2-.4l-.3-.3q0-.2-.5-.6-.6-.5-.7-.1-.2.3-.3.2c-.2-.2-1.2-.3-1.2 0h.2l.2.5q0 .5-.3 0t-.2 0-.4.2q-.4-.1-.3.3 0 .5-.1.4c-.2-.2-1 .8-1 1.2v.6H336v.4q-.3 0 0 .4v.3q-.3 0-.3.3l-.2-.4q0-.6-.3-.7l-.7.6q-.7.7-.6 1.3 0 .5-.6 1.2l-.8 1q-.8 1-2.2 1-.9 0-1.1.4l-.8.2-.6.3q-.3.3-.9.2h-.8q0 .2-.3.2l-.8.5-1.2.8-.8.7-.2.5-.1-.5q0-.6-.3-.3-.6 1-.6 1.6t-.4 1.1c-.5.7-.5.9-.1 2.2s.3 2-.1 1l-.4-.7-.1.4-.2.4-.2-.4q-.2-.6 0 .3 0 .7.3 1.3t.3 1.4l.2 1.3v3.6q0 2-.2 2-.3.2-.3.5c0 .5-.4 1.2-.8 1.2q-.3 0-.5.4-.4.8.1.7.3 0 .5.3.1.7 1.6.8c.8.1 1.7-.1 1.7-.4l1-.4q.3 0 .6-.4.7-.6 3.7-.5l1.4.1.8-.7q.7-.8 1-.8l.4-.1q.1-.2.5-.3t.8-.4.8-.1c.6 0 3-.5 3.3-.8l1.8-.3c1.4 0 1.6 0 2 .3l.6.3.8.3.9.4q.2 0 0 .2-.4.6 0 .8c.4 0 .6 1.6.2 1.8q-.4.1.3.7t.6 0c0-.4 1.2-1.4 1.5-1.4l1-.8q.6-.7 1-.7 0 .2-.2.2l-.2.4q0 .3-.5.6l-.6.9-.7.7q-.4.1-.6.5-.3.3.2.1h.7q.4 0 .7-.7l.5-.6c.3 0 0 .9-.4 1.4q-.9.7.2.6.5-.2.7.4c.2.5.2.6-.1 1.2q-.5.6-.2 1.2t.6.7q.3 0 .3.3l.7.1.8.2.5.4q.3.2 1.2-.2t.9-.4l.7.5q.6.3.7.6t.3-.1c1-.9 2.8-1.8 3.7-1.8s2-.5 2-1.1l.5-.7.4-.6.8-1q.8-.6 1.5-1.6 1.6-2 2.7-2.5l.6-.5q0-.3.5-.7 1.1-1.3 1-1.5l.4-.8a11 11 0 0 0 2-4.1q.3-1.2-.1-.5l-.2.3.4-1.8.1-.4.3-.7q.4-.5.3-.9 0-.3 0 0c-.3.7-1 .8-1 .1l-.1-.3q-.1 0-.2-.5-.2-.5-.4-.5t-.3-.4q0-.4-.3-.3t0-1q0-1.2-.3-.8-.3 0-.5-.2 0-.3-.3 0-.4.3-.3-.5 0-.7-.2-1.1-.4-.7 0-.6l.2-.4q0-.3-.3-.4c-.3.1-1.3-.6-1.5-1l-.3-.2h-.2q0-.2-.2-.2c-.3.2-.6-.4-.5-.8v-.8c.1-.3 0-1.7-.3-2s-.3-2.1 0-2.5q0-.2-.3-.5-.7-.3-.2-.5.3-.1 0-.4l-.4-.2q-.3 0 0 .2.6.1 0 .2h-.4l-.1.1q0 .2-.3.2t-.2-.9.3-.7.2-.6v-1.4q-.3 0-.2 1.2l-.1.5q-.2-.1-.1-.4 0-.3-.2-.5-.1-.5.2-.8 0-.1-.2 0c-.2 0-.7-.5-.5-.7v-.6q-.2-.8-.8-.3M321 242v.2l-.3-.2.1-.3q.2 0 .2.3m32.2 17.3q-.1.2-.3.1s.1-.4.3-.4zM350.8 263q-.5.6-.5 1.3 0 .6-.3 1t-.1 1q-.1.8.5.8c.5.1 1.6-.3 1.6-.6q0-.2.2 0t.7-.3.5-.8.3-.2.5-.4l.5-1q.8-1.2-.9-.7c-1.5.4-1.5.4-1.9 0l-.5-.3v-.3q0-.5-.6.4"/></g><g fill="#825"><path d="m228 90.3-.9.2c-.7.2-2.1.8-2.3 1h-.3l-.2.1.2.2.6.1q.4 0 .8-.3l.2-.2q0 .2.3.3h.5q0-.3.2-.1.2 0 .1.3h2.4q-.3.3.4.2t.8-.2q0-.2.4-.3.8 0 .9-.3l-.3-.2-.4-.1c0-.2-1.2-.3-2.3-.4q-.3 0 0-.2t-.4-.3-.7.2m2 .8a1 1 0 0 1-.8.4h-.4l.4-.2q.4 0 .2-.2l.2-.1q.9-.4.4.1m-4.3.3-.2.2-.2-.1.2-.2zM222.1 91q-.5.2-.4.4h-.3c0-.3-1.2-.3-2.4 0q-1.3 0 .5.1.5 0 .5.2-.2 0 0 .1c.8.2 2 .2 1.9 0q-.1-.1.2-.2.4 0 .2.2c-.3.2.5.4 1.4.4q.6 0 .3-.2-.3-.1-.8 0-.7 0-.3-.3l.6-.2q.3 0 .2-.2l-.4-.2-.4-.1q.2-.3-.8 0M196.8 91.8q-.2.3-.9.1-.6 0-.7.2l.1.4q.2.2 0 .2l-.4-.3q0-.2-.6-.2h-.5l-1-.1h-1.4q-.6 0-.4.3t.5.8l.5.4-.5-.3q-.5-.3-.5-.1t.6.5q1.2.6.6 0c-.4-.4.9.4 1.4.9l.6.4 1 .4q1.4.7 1.5-.2.1-.5.4-.5c.2 0 1.2-.8 1-.8l.1-.2q.6-.3 1.5.3.5.3 0 .5t.6.2q.5 0 .7.2c0 .2.9 0 1.2-.2l.4-.2q.3 0 .2-.1l-.6-.2q-.4 0-.5-.3-.2-.2-.6-.2h-.4c0-.3-1.5-.9-1.8-.8q-.3 0-.1 0 .1-.3 1.3-.2c1.8.2 3.3.1 3.5-.2l.3-.2q.8-.1.3-.5c-.5-.2-2.6-.3-2.7 0l-.2-.1c-.2-.3-1-.3-1 0q0 .4-.2.1c-.3-.3-3-.3-3.3 0m1.5.8q0 .3-.2.2l-.4-.3q0-.2.2-.1zm-3.4 1.2h-.3q-.2 0-.3-.2t.3 0q.3 0 .3.2m-1.1.4-.2.2-.2-.2.2-.2q.1 0 .2.2M238.7 95.2l-.8.3q-.4.3-2.5.4-2.9.2-3 .5c-.2.2-1.4.7-1.7.7q-.3 0-.3.3.1.8-.7 1.2l-.6.3.5.2q.3.1.1.2l-.8.4q-.5.4-.1.4.6.1-.2.5l-.4.4q.2.7.8.6h.3q0 .3.4.4h.6q0-.3.1 0-.1.5 1.7.6c2 .2 2.3.2 2.3 0q0-.4-.2-.2h-.2q0-.2-.5-.4l-.7-.3q0-.2-.5-.4c-.5-.3-.7-1.2-.4-1.2l.2-.1c0-.3 1.8-2 2-2l.5-.4c.4-.4 1.1-.6 3.3-1q4.4-.8 2.2-1.4c-.6-.2-.7-.2-1.4 0m-8.7 3.7h-.3q-.1 0 0-.1z"/><path d="M204.7 102q0 .1-.4 0-.2 0-.7.4-.3.3-.3.1.2-.2-.4-.2-1.2 0-1.3.4c.1.1-.7.4-1.2.3q-.4 0-.3.2c-.5-.4-1.6-.2-1.6.3q.1.2-.6.3-1 0-.9.6v.4h-.1q.2-.4-.3-.2-.7.1-.3-.1.5-.6-1 0-.7.4-.6.7t0 .1c-.3-.1-1.4.3-1.4.6q-.2.3.7 0l.6-.3h1l-.2.1q-.3 0-.3.3t-.8 1l-.9.7-.3.3q-.4 0-.4.5-.1 1-1 1.1-.7 0-.3.2t0 .3l-.9.7q-.7.9-1 .5-.4-.3-.5 0-.2.3-.5.2t-.1.2-.4.4-.5.3l-.4.2q-.5 0-.5.3 0 0-.1 0l-.7.3c-.5.3-.5.3-.5 1.6q0 1.3.2 1.2.5 0 .2.3c-.3.1-.3 1.1 0 1.1v.4q0 .4.8.7 1.3.9 2.5 0l1.3-.7.8-.7q0-.3 0 0l.4.4.2.6.4.9.3.5.6.8q.5.5.4.7l-.1.3-.2.2-1.2.3c0 .2-1 .4-1.1.3v-.4q.3-.5.2 0 0 .3.2.2t.1-.2v-.3q.5-.4 0-.6-.7-.2-.3-.6c.2 0 .2-1 0-1h-.1q0 .3-.3.3-.1 0-.4.2-.2.3-.7.3c-1 0-1.5 1.8-.9 2.5q.5.5 0 .6v.4q0 .3.3 0t.3.1-.2.3 0 .2q.5.8-.9.7l-1 .1q-.3.3-1 .2-1.2-.1-1.6 1c-.1 1-1.3 2-2.5 2.4q-1 .2-1 .9-.1.6-.8.8-.7.1-1 .5-.3.6-1 0l-.8-.3q-.6 0-.3.3c.3 1.1.3 1.2-.4 1.2l-.9-.1c-.2-.1-1.5 0-1.9.2s-.3 1 0 1l.2.2q0 0 .2 0c.4 0 1.1.3 1 .6l.1.3q.2 0 .1-.2c-.2-.3.4-.2.8.2q.3.2.2.3-.3 0 0 .3t.3.4l.3.1q.2 0 .1.2v.2q.3 0 .2.2v.4c.2.2 0 2-.3 2.6q-.4 1-1.2.8l-5.7-.5q-.5-.3-1.1.2l-.6.4q-.8.1-.5.8l.2 1.6c0 1.3-.4 2.7-.9 3.1l-.1.2v.5q-.3.5 0 .5l.1.3.2.2c.2 0 .3.8 0 1.6q-.2.5.7.4.7 0 1.1-.2.9-.3 1.3.8.7 1.2 1.3.6.8-.7 2.4-.8h1.4q.2 0 .5-.5t.8-.6q.5 0 .8-.8l.4-.6q.3 0 .5-.3v-.5q-.7-.5-.2-1.1c.6-1 1.6-2 1.8-2l1.2-.5q1.5-.7 1-1.5l-.1-.5c0-.8 1.8-1.1 2.8-.5q.8.6 1.6-.2.6-.5 1-.6.5-.2.7-.5l.4-.4c.4 0 1.8.6 1.8.9l.2.6q.3.3 0 .5-.4.3-.2.4l.3-.1q.2-.3.5 0l.2.4q0 .3.4.3l.3.1c0 .3 1.7 1.5 2 1.5q.5 0 1 .4t.6.5.3.3l.5.5q.6 0 .8 1 .2.7 0 .7l-.1.4c0 .4-1.6.7-2.8.6q-1.4-.1-1.3.4c0 .3 1.5 1.2 2 1.2l.3.2q.2.3.6.4.8-.1.6-.8v-.7q0-.5.4-.4c.5.2 1.2-.5 1.2-1l.3-.4c.5 0 .5-.7 0-1q-.6-.3-.2-.7.1-.4.7-.4.5.1.5.2l.4.5q.3.3.4-.1.4-.7-1.8-1.7c-1-.5-1-.7-1-1q.2-.1 0-.2h-.8q-.7-.1-1.3-.7-.5-.7-.6-1 0-.5-1-1.2-1.1-.7-.7-1.3.2-.1 0-.3-.4-.3.4-.7 1.2-.4.8-.1v.6q.3.8.7.4.2-.3.2.2l.1.4q.2 0 .2-.2t.2-.5q.2 0 0 .2 0 .3.2.6t.1.4c-.2.1.6.8 1 .8l.5.4.7.3h.4l-.4.2q-.6 0 .1.1l.7.2.4.2 1.1.6 1 .6-.2 1c0 1 0 1.1.4 1.4q.5.3.2.4c-.2.2 0 .7.3.7q.3 0 .5.3.5.3 0 1.1v.5l.3.4q.3.5.5 0c0-.4.6.5.7 1q0 .8.6.6.3-.1.4.1l.1.3.2-.2q0-.2.2-.2l.1.4q0 .5.2.5c.3 0 .3-.9-.1-1.6q-.3-.6 0-.3l.5.2q.3 0 .2-.4-.2-.4.3-.3.5 0 .3-.2 0-.5.2-.2t.3.1l.3.1.2.6q0 .5.3 0 .3-.2-.1-.6l-.4-.2c0 .2-.5-.4-.6-.7q-.2-.4-.5-.4-.4 0-.6-.5 0-.5-.3-.6c-.2 0-.7-1-.6-1.2q0 0 .6.3.8.7.6.3 0-.1.2 0 .3 0 .2-.3-.1-.4 0-.1.8.5.2-.2-.6-.5 0-.6.3-.2.4 0 0 .2 0 0l-.2.1q.2.5.5-.1 0-.4.7-.1.5.1 1 .4.8.4 1.4-.2.2-.4.9-.4.5 0 .8-.2t-.4-.5c-.6-.2-1.3-1.5-1-1.8l.1-.5q0-.4.4-.5.3 0 .4-.9-.1-1 .5-1 .4-.3.4-.7l.5-1 .6-.7q0-.2.4-.2.3 0 .4.2c0 .3.9.5 1.8.5l.5.1-.3.2c-.2 0-1 .7-.7.7l.9.2q.4.2.3.6-.1.5.5.5t.6-.2q0-.3.6-.3.3 0 .5-.2l.7-.1q.6 0 .5-.3-.2-.5 1 .5l.4.3.6.2.6.3.5.3q.3.3.8 0 .6 0 1.1.2t1.1.4q.7.2 1.4.6c.7.5.9.5 1.7.4h1l1 .9c1.9 1.6 6.4 3.7 6 2.7q0-.1-.2-.2-.4-.2-2-1.7c-1.3-1.5-1.6-1.9-1.6-2.4q-.1-1-1-1.4-.3-.2 0-.3l.3-.6c.1-.5 1-1.1 1.4-1l.2-.1q0-.5 1.5-1.3l1-.5q0-.1-.4-.5-.6-.4-.4-1 0-.6-.6-1.2c-.7-.9-.9-1.2-1-2s-.1-.8.5-1l1.5-.1 1-.2c.4-.4 2.5-.3 3.6.1q1 .4 1.8.3h.8q0 .3.3.3.4 0 .6.2.5.5.9 0 0-.2.7-.1c1.2.1 1.5-.8.4-1.2q-1.5-.5-1-.8.5-.1-.9-1c-.3-.3-.3-.3-.1-1q.2-1-.1-1.4-.7-1-1.6 0-1.1 1.3-1.9 0l-.8-1q-.6-.6-.1-.9.3-.2.8-.3c1.1 0 1.5-1.4.6-2.2q-.9-.7-.8-2.2 0-2.8-1.5-6-1-2-.7-2.2.1-.3 1-.5c1.7-.7 3.5-2 3.5-2.6l-.7-.9q-1-1.1-3.8-1.3a7 7 0 0 1-3-.6q-.8-.4-1-.2t.2.5q.3.5.5.3c.2 0 1.5.5 1.9.9q.4.4-.3.4-.4 0-.3.2t-.1.2-.3-.2q-.1-.7-.5-1-.7 0-.1.3 0 .1-.5.2-.7 0-.9.3h-1l-1 .3-.6.2c-.5-.1-.6-.6-.2-.7q.2-.1-.4-.1t-1 .2l-1 .3-1.2.4-1 .4q-1 .1-1 .8l-.3.4c-.5.2-1.3.2-1.5-.1l-.5-.3c-.5 0 0-.4.6-.5l.6-.2-.6-.5q-.4-.4-1.8-.5c-1.2 0-1.8.1-.9.3q.6 0 .5.8t.5 1q.6.3.2.8 0 .3-.5 0l-.7-.1q-.3 0-.3-.3t-.6.2-.8.6l-.7.4-.5.3.4.4q.8 1-1 .5l-1.2-.4q-.4-.3-.8 0-.6.4 0 .6.3 0 .3.2 0 .1.5.2.4 0 .6.2c.1.5-1 .4-1.8 0l-.9-.4q-.3 0-.3-.2l-.3-.6q-.4-.2-.2-.6.3-.6-.9-.9-.4 0-.5-.3-.2-.2 1.3 0c3.5.8 4.5.8 5.6 0q.8-.4.1-1.2c-.3-.4-1.5-1-1.7-.9l-.6-.2-.6-.2-1.3-.5-2.4-.5-1.5-.4c0-.3-1.2-.5-1.5-.3h-1.7l.6-.3q.5 0 .4-.3c0-.2-2-.8-2.3-.7q0 0-.1 0l-.6-.2q-.6 0-.8.4-.3.3-.3.1t-.5-.5q-.7-.3-.8 0m.8.3-.2.2q-.2 0 0-.2l.1-.1zm1.8 0s-.5.2-.6 0l.3-.1zm-7.8 1.6h-.2l-.3-.1.3-.1q.2 0 .2.2m-1.7.3q0 .1-.3.2-.3 0 0-.2.4-.3.3 0m-1.8 1.1v.2l-.2-.3q0-.3.2.1m1.4-.1h-.5l.3-.1zm7.5 3.7q.6 0 .6.4 0 .3-.4.2l-.3.1c.1.3-1 1.4-1.3 1.4l-.2.1c0 .3-1 .7-1.3.6l-.4.1q0 .2.2.3t0 .3q-.3.3 0 .6l.2.6q.2.4.1 1.2 0 1 .3.9l.2.1q0 .3.6.3l.6.3 1.3-.1 1.5-.3h.4q.1-.3 1.3-.3c1-.1 1.2 0 1.6.2q.7.6-.2.5-.5 0-.5.3t-2.5 0c-.8-.1-2.8.8-2.3 1q.5.3 0 .3-.3 0-.3-.3t-.2-.3c-.3 0-1 .3-.7.4q.5.2 0 .3t-.2.5q.2.8.4.4l.4-.2q.3 0 .3-.2c0-.2.7-.3.8-.1l.4.1c.5 0 .4 1.7-.2 1.7q-.1 0-.7-.6c-.6-.5-.7-.5-1.1-.4q-1.1.6-1 2.4 0 1.3-.8 1.3-.2 0-.3.3l-.4.4c-.4.2-1 .1-.8-.2.3-.5-2.2-.2-2.6.3l-1.2.4q-1.6.3-1.6-.4.1-.8-2 .3l-.9.2c0-.2.7-.8.9-.7l.2-.1q0-.3.4-.3.2 0 .1-.2h-.3q-.2 0 0-.2l.1-.3.1-.2q.2 0 .2-.3l.2.2q0 .5.8.4t.9-.3q0-.8 1.2-.8.7 0 .7-.3 0-.4.1 0l.2.1c.2-.2.7-1.4.6-1.5l-.2.1q-.4.5-.3-.1l.2-1.5.4-.3.5-.1.5-.2q.3 0 .3-.4l.3-.4q.3-.2 0-.6c-.2-.5-.3-.6-1.2-1q-.8-.3-.5-1l.1-.8q0-.4.5-.8.5-.3.5-.4c0-.2 1.2-.8 1.5-.8l.8-.6q.7-.6.4-.7-.3-.2.2-.7l.5-.5q.1 0 .2 0c0-.2 1.3-.3 2.1-.1m-13.2 1.6c0 .2-.8 1-1 1v-.3q.2-.2 0-.2l.3-.4q.7-.5.7 0m-3 2h-.4l.1-.1zm3.5 10.5q0 0-.2.3l-.2-.1v-.2l-.2-.1h.3zm10.2 0q-.1.3-.2 0 0-.2.4-.2 0 0-.2.3m-11 .3.2.1c.4.3-.1.6-.7.3q-.8-.5 0-.3zm-5.9 3.1-.2.2q-.2 0 0-.2.5-.5.2 0m37.8 8.1-.7.3q-.2 0-.2.2t.4.3q.5 0 .1.3l-.4.6q.2.5-1 .3l-1.2.1q-.2.2-.6-.3l-.3-.4.4-.5q.5-.4 1-.6.5 0 .8-.2l1.8-.4q.6 0-.1.3M204 147q0 0 0 .2t-.2.3h-.3l-.1-.6q0-.7.2-.2.2.3.4.3m3.2-.4q.5.2 0 .2l-.4-.2q-.2-.3.4 0m-1 .6h-.4.4m.3.6q0 .2-.1 0v-.3q.2 0 .1.3M158.4 107.9l-.6.3q-.3 0-.3.2l-.2.2-.5.3c-.2.2-.2.2.8.2q2 0 .1.5-1 0-.8.4l.2.1q.2 0 .1-.1c-.1-.2 1.2 0 1.3.2q.4.6-.3.6-.3 0-.4.3 0 .2.8.1.8 0 1.4.2a5 5 0 0 0 2.8.1l2.5-.8c1-.3 2.2-1 2.2-1.4q0-.3-.5-.5t-.4-.4l-.2-.1.1-.3q.6-.4-.3-.2h-.7q-.5-.4-.7 0 0 .3-.4.3h-1.5q-1 0-1.2.3-.1.5-.3 0-.3-.6-.5 0 0 .5-.3.3h-.3q-.4.5-.3 0 0-.4-.6-.8c-.7-.4-.7-.4-1 0M173 113.1q-.2.5 0 .5l.3.1v.3q-.3.1 0 .4.4.3.2 0v-.4q.3-.1.2-.3v-.3l.2-.3q0-.1-.1 0-.1.3-.3.1-.2-.3-.5 0"/><path d="m176.6 117.3-.1.4c0 .3-.8.5-1.3.4q-.4 0-.7.3-.8 1-1.1 1h-.4q-.3.3 0 .5l.1.4v.1q0 0 .1 0 .1-.3.3-.1 0 .1-.5.4-.5 0-.6.3h.3q.4-.1.4 0 0 .3.3.4.3 0-.2.2t-.5.4q.2.5.6.2t.4.2q0 0-.1 0-.2-.5-.2 0-.1.4.5.2.6 0 .4.2l-.2.2q-.2 0 0 .4.1.3.3.2c.2-.2 1.4-.2 1.3 0q0 .3.2.5.5.8 0 1.2h-.8l-.7.1q0 .1.2 0 .4 0-.2.5l-.4.4h.4c.8-.2.7.4-.1.7q-1.5.7.1.9c.8 0 1.4.4.7.4-.4 0-1.2.5-1.2.8l-.6.5q-.5.2-.5.4.4.3 1-.1.4-.3 1-.2.4 0 .7-.2c.2-.3.4-.3 1.5-.3h1.2q0-.2.7-.2c.7 0 2.1-.4 2.1-.7q0-.2-.2-.2-.5-.2 0-.5c.4-.2.8-1 .6-1.3-.2-.5-1.1-.7-1.5-.4q-.5.3 0 0v-.8l-.3-.6q-.1-.5-1-1l-.4-.6q-.3-1.1-1-1.2c-.3 0-.3-.6.1-.9q.3-.2.3-.4l.3-.5q.6-.6-1-.6-.9 0-1-.2v-.1l.7-.4.3-.3.2-.4.4-.6c.2-.2-.6-.2-.9 0m-3.2 2.3q0 .2-.2.2 0 0 0-.2l.1-.1z"/><path d="M171 122.7c-.3 0-1.1 1-.8 1q0 0 0 .2-.1 0-.8 0t-1 .3l.1.4q.3 0 0 .3-.4.4.2.6 1 .1-.2 1-1 1-.5 1.1 0 0 0 .2t.2.1h.3c0 .4 1.3 0 2.2-.4l1.3-.4q.5.2.7-.7l.2-1.3q-.1-.7.4-.9.8-.3.1-1.1c-.3-.4-1.6-.7-2.3-.4M189.8 140.2l-.5.4q-.5 0-.5.4c0 .4.2 1.2.5 1.4q.4.2-.2.6-.5.3-.6 0-.1 0-.2.2l.1.6q.3.3.2.7c-.3 1.3-.3 1.4.1 1.6q.4.2.6 0 .2-.4.5-.3.4.3.4-1.6 0-1.3-.2-1.4-.4-.2-.1-.9c.2-.7.1-2.2-.1-1.7M207.1 150.8l-.1.4q0 .3.7.4.7 0 .8.3h1q1.4-.2.7-.5-.2 0 0 .1 0 .3-.3 0t-1.1-.3l-1-.2q0 0-.2 0l-.3-.1q0-.2-.2-.1"/></g><g fill="#173"><path d="M85 185q-.5.2-.5.5t-.2.3l-.7.3q-.4.3-1 .4-.7 0-.7.2-.2.2-.5.2c-.7-.2-1.6 1.2-1.5 2.1l-.1.2q-.6.2-.7.6l-.5.5q-.6.3-.4.5 0 .3-.7-.5c-.6-.6-1.7-1.3-2.2-1.3l-.1.5q0 .4.4.7l.5.5q0 .3.3.2t0 .2q-.3.7.3 1.3l.4.7c.2.5.3 3.5.1 3.6v.5c.2.3 0 1.5-.3 1.5q-.2 0-.2.2l-.6.5q-.6.2-.6.6t-.2.4q-.3.2-.2.5.3.5-.7.7-.9.3-.7 1 0 .6-.3.7l-.2.5q0 .4-.4.6-.3.3-.2.4c.2.3.2 1.5 0 1.5q-.1 0 .3.5l.6.7q0 .1.2.2l.1-.2q0-.2.1-.1c.2.1 0 .6-.3.6l-.8.7c-.6.7-.7.8-.6 1.4q0 .7.4 1 .4.5 0 .6c-.4 0 0 .6.6 1q.8.3 1.2 1.1l.9 1.4 1 1.8q.4 1.2.8 1.7l.3.7.3.6q.4.2.4.6l.1.4c.4.2 1.4 2 1.3 2.2q-.2.6 1 2c.9.7 3.2 2.2 4.2 2.5l.5.3.6.5.6.4c0 .2.4.7.6.7q.6.2 1 1.4c.5 1.9.9 5.8.6 5.8q-.2 0-.2.5 0 .3.2.4a39 39 0 0 1 .3 8.4q.2.6.1 1.4 0 .8.3 1.6l.3 1.2q0 .2.2.3.1 0 .1.7v1c0 .4 0 2.4-.2 3.8v1.3q0 .3-.4.2-.3-.1-.1.4 0 .5.3.7l.3.5.4 1q.4.8.4 1.2c-.2.8 0 2.2.4 2.6q.3.3.1.3v.5l.1 1q.5 1.6 1.1.7.3-.3 0-.6-.1-.2 0-.2l-.1-.3q-.3-.2-.1-.2v-.2q-.5-.6 0-.4.3 0 .2-.2t0-.2l.2.4q0 .2.2.2 0 0 0 .2l.1.7.3 1.4q0 .9.3 1l-.1.2-.5.2v-.4q0-.7-.6-.7-.2 0-.1.2.3.6 0 .6t-.5.4q-.3.7 0 .3c.2-.3.9 0 .9.6q0 .3-.2.4l-.1.5-.1.8q-.3.3-.2.5.3.5.6 0h.5q.3.3.5.2.1 0 0 .1l.1.3c.4 0 0 1-.4 1.1q-.3.2-.2.3v.3l.5.8q.2 0 .1.2l.6 1.2q.4.2.4.7t.3.5h.4l.3.8.1.5q0-.2.4.4.3.6.7.4.4 0 .8.3l.5.3q.2 0 .2.2t-1-.1q-.3-.2.3.4t.7.3c.1-.2.5 0 .3.3q0 .3.1.2.6.1.7.5 0 .3.6.2t.3-.2q0-.3-.4-.2h-.3c0-.4.7-.2.9.1l.2.5q0 0 .2.3.3 0 .5.4.5.3.6 0t.2 0l.2.3q.2 0 .7.2h.6q.1 0 .2.2h.3l.2.1q0 .2.7.2.9 0 1 .2.3 0 .4 0t-.2-.3q-.5-.3.7-.1 1.1 0 .9-.2l.1-.3q.3 0 .4-.2t.2-.3v.3q-.3.3 0 .2t.3-.3q.1-.4-.5-.4c-1 0-2.8-1-3.8-1.9l-.8-1q0-.3-.4-.5c-.5-.4-1.4-1.7-1.4-2.1q0-.4.4-.5.8-.2.4-1.2c-.2-.5 0-.6.8-1.5q.6-.4.5-.6l-.2-.6q0-.7-1-.7c-.5 0-1.5-.6-1.7-1-.4-.7.2-1.8 1-1.8q.8 0 .5-.4-.3 0 0-.2.2 0 0-.9l-.4-.7.6-.5q.4-.5.7-.5.5-.1 0-.8 0-.4-.8-.3l-.8.1-.4-.9-.3-1 .9.3q1 .4 2 0 .7-.3.1-.9v-.7q0-.5-.2-.9-.5-.4 0-.2h.2q-.1-.3.7-.3c1.8 0 4.1-.8 4.1-1.5q0-.2.2-.4c.6-.7.5-2.1-.2-2.1q-.5 0-.5-1 0-.6-1.2-1.2l-.6-.6q0-.6.2 0l.9.2q.5 0 .5.2.1.3 2 .4 2 .1 2.2-1.3l.2-.5c.2 0 .7-.9.8-1.5q0-.6.7-1.1.5-.5.5-.9-.2-.3-.3.1c-.1.4-.6.7-.7.5q0 0 .3-.6.4-.7.4-1t.3-.3q.3 0 .2.3 0 .5.2.5.1 0 .4-.6c.4-1.6.5-1.8 1-2.3.7-.7.9-1.9.6-2.8-.2-.6-.3-2.5-.1-2.4.1 0 1.5-1.4 1.5-1.6l.5-.3q.5 0 .5-.3h1.2q0-.3-.2-.3 0 0 0-.1c.1-.3 2.3-.9 3.2-.9q1 .1 1-.5 0-.3.6-.7t.4-.7q0-.3 1.2-3 .3-.4.2-1.3t.2-1.1c.3-.3.5-1.7.4-3.1v-2.2q-.2-2.2.4-2.1.3-.1 1-1.4c.5-1.3.7-1.6 1-2a15 15 0 0 0 2.2-2.8q.5-1.6-.1-3.7l-.5-1.6-1.1-.3c-1.1 0-1.1-.1-2.5-1.4q-.9-.8-1.9-1.4c-.8-.5-1-.6-1.6-.4h-1.2q-.5-.3-.7-.2t-.5-.2c-.5-.3-1.5-.5-1.4-.2h-.3q-.8-.2-.7-.7 0-.1-.2-.4l-.2-.5-.2-.1-.2.1c0 .2-1.2-.3-1.4-.6h-.1q0 0-.2 0-.4-.3-1.4-.5-.9 0-1.3 1-.5.8 0-.5c.3-1 .3-1-.4-1.1q-.7-.1-1-.5 0-.3-.4-.3-.3 0 0-1.2.1-.5-.2-1l-.6-.5c-.2 0-.6-1.3-.6-2 0-.4-.7-1.6-.7-1.2l-1-.8-1.1-1q-.2 0-.8-.2c-.6-.3-2.5-.5-2.7-.3s-1.4-.1-2.2-.8l-.9-.7-.1-.4-.3-.7c-.5-.6-1.9-1.4-2.2-1.3q-.7 0-.4-.5t-.3-.9q-.3 0-.4-.3l-.3-.1-.5-.2q-.2-.3-.4 0 0 .3-.1 0l-.1-.4q-.1-.3.1-.3t.6-.2c.3-.3.2-.3-1.3-.2h-1.7l-.2.3-.4.4c-.5.3-1.6 0-1.6-.4 0-.2-.2-.2-1.5-.1h-1.4v-.4c0-.4-.8-1-1.5-1q-.4 0-.4-.5.1-.7-.4-.5l-.2.7q0 .7-.5.7t-1 .4-.4.1v-.3q-.2 0-.2-.3t.3-.4q.6-.1.7-.8-.1-.5-1-.3m.7 4q-.1.8-.5.9l-.3-.7q-.3-.7 0-1l.4-.4.2.4zm3.2 37.2q.3.5.2.6-.1.3-.3 0 0-.3-.3-.3l-.3-.3q-.1-.7.7 0m32.8 11-.1.2-.2-.2v-.2q.3 0 .3.2m-6.4 11q0 .2 0 0v-.3zM103.1 266l-.2.1-.4-.1.2-.2q.3 0 .4.2m-9.2 2.8-.2.1q-.2-.3.1-.4.2 0 .1.3m-.3.6q.2.8-.2 0-.1-.3 0-.4zm.8.5-.3.2h-.3q0-.2.3-.2zm7.6 10.8q0 .6 1 .6.6 0 0 .1-.3.3-.2.4l-.2-.2q-.3-.3-.4 0 0 0-.3-.3c-.3-.5-.3-1.2 0-1zm-1.1 0-.4.2q-.3 0 0-.3.7-.3.4.1M112.4 278l-.6.1q-.3 0 0 .2.4.6 0 .5c-.5-.2-.3.3.2.5s.5.3 1-.3q.5-.6.4-.3-.5 1 0 .9t1.2-.5q1-.5.5-.7-.3-.2-1-.3h-1.7"/></g><g fill="#a49"><path d="m154.2 88.8-8.3.5h-.4l.4.3q.6.4.2.3l-.4-.1q-.2-.2-.5-.1-.3 0-.5-.2-.5-.5-.4 0l-.5.1q-.7 0-.5.3 0 .3-.3.1-1.5-.3-1.8 0-.2.4-.2 0c0-.3-.1-.3-2-.2l-3 .2h-.8q.6-.4-.4-.4-.7 0-.9-.2 0-.2-6-.2c-6 0-7.8 0-9 .5h-3.1q-1 .3-2.2.3-3 .2-3.1.5l.3.1q.3 0 .4.3 0 .1.5.4.6 0 .2.2-.3 0-.6.2t-.1 0q0-.3-.4-.3l-.7-.4q-.2-.4-1.2-.4l-.9.2-.7.2-.6.1q0 .2-.3.2l-1.2.3q-.8.4-.7.7-.1.5.5.5t.2.2q-.5 0 0 .5c.3.4.4.4 2.6.5s3.5.2 2.8.5l-.4-.1c-.1-.2-1.4-.3-1.8-.1q-.2 0-.2.4.1.5-.2.3l-1.3.1-1 .2c-.2-.2-.8 0-.8.3h.2q.1 0 0 .1 0 .2-.4 0-.3-.4-1-.2l-1-.1q0-.2-.5-.2l-.4-.1c-.1-.2-1.7 0-1.8.1l-.4.2q-.3.1 0 .1c.3 0 .7.8.5 1l-1.3.1-1.1.1.5-.4q.6-.5.2-.7-.4-.4-.7 0-.6.3-.4 0c.2-.3-1-.3-2 0q-1 .3-1 .6 0 .1-.1.1l-.1-.2c.1-.3-.7-.7-1-.6s-1 .7-.7.7v.1c-.2.2.5.6 1.2.6q.8 0 .7.3c0 .3.1.3 1.2.2q1.3 0 1.5-.3t.5-.1q.3 0 .1.2-.2 0 .1.3t.1.3q-.4.2 0 .3.3 0 .3-.2h.8q1 .1 1.3-.4.6-.5.2-.6v-.3l.2-.3c0-.4 1.5-.3 1.6 0l.1.3-.5.3c-.4.1-.8.8-.5.9a34 34 0 0 0 7.6.1c.1.2 2 .1 3-.1q.9-.4 1-.9c0-.5-2.4-.6-4.7-.2q-1.2.1-1.5.1l-1-.1c-.7 0-1.4-.5-.7-.5l.5-.1 2.2-.1 3.2-.1h1.4q.5 0 0 .2h.6q1.2 0 .7.1-.8.3 0 .4.4 0 .6-.4 0-.3.4-.3c.7 0 1.5-.4 1.5-.6q0-.3-.5-.2h-.3l.5-.2.9-.3q.6-.3 1.3-.3 1.8-.2 1.3-.5h.3l.6-.1.4-.2.7-.4c.4-.4.8-.5 2.7-.7l1.5-.3.8-.4c3.5-.6 4.5-.8 4.3-1h1.3c.2-.2 2.7-.6 2.8-.5q0 0-.2.3t-1.3.3a17 17 0 0 0-4.9 1q0 .2.7.2.8 0 .8.2 0 .5-2.4.6c-2.4.3-5.1.7-5.6 1l-.5.2.5.2.7.2h.4q0 .3-.8.2l-1 .1q0 .2.3.2.5 0 .3.2c-.1.4 1.2 1.2 2.2 1.3l.8-.1q-.2-.3.4 0h.7c.4-.3 2.8-.2 4 .1q2 .5 1.3.5c-.4 0-.2.5.3.6q.5 0 0 .3-.5.4 0 .3.5.1 0 .1t-.3.2l.4.1q.3 0-.2.3l-.4.4.4-.1q.6-.2.1.2t0 .5q.2.2-.2.2-.6 0-.2.4.3 0-.2.4t-.3.8q.2.3.9.2h.7q0 .1-.2 0-.2 0-.2.2 0 .1.3.2.4 0 .3-.3l.1-.3q.2 0 .2.2t.3.2.4.3q0 .6-.4.2c0-.2-2-.2-2.1 0q0 .1 0 .2.2 0-.2 0l-.4.1q0 .2-.2.6l-.3.4.5.3c.5.3.6.3 1.5 0q1.5-.3.6-.7l-.4-.3h.3q.2.3.6.2.8.1 0 1.3-.3.5-1 .3c-.9 0-1 0-1.3.5l-.6.5c-.2 0-1 .9-1 1.1q0 .2.4.3.3 0-.1.1-.8.5-.6 1 0 0 0 .4t.3.3q.3-.1.2.1v.9q-.3.6 0 .8.3.1 0 .2c-.2.2.1 1 .4 1v.6l.1.5.4.6q.1.7.4.8.2.1.3.5t.6.1c.4-.2 1.9.3 1.9.6q0 .3.3.4l.7.2c.4.3 1.2 0 1.5-.5q0-.3.3-.3t.3-.4l.7-.9.7-1q.1-.4.5-.6l1-.6q.3-.5.7-.5.2 0 .3-.4 0-.2.3-.5.5-.4.3-.7v-.3c.2 0 1.2-.5 1.1-.6q0-.1.7-.2.9 0 .7-.2-.1-.1.1 0c.4.3 1.2.5 1.2.2l.2-.1q.3 0 .3-.2 0 0 .1 0l.4-.1 1.2-.5 1.8-1q.7-.7 1.3-.9l.6-.3q.1-.5.3 0h1a30 30 0 0 0 7.7-2l1.2-.6h-1c-1.4-.2-2.6-.5-2.1-.5q.4 0 .3-.4t.5-.4.5.3l.2.4c.1.2 1.9.4 2.1.2l.2-.8q.1-.9-.5-1-.8-.4-.2-.2c.6 0 1.2-.3.8-.5q-.2-.2 0-.2.5 0 .3-.3-.1-.5 1.1-.5c.7 0 1.1-.6.5-.8h.7a4 4 0 0 0 1.8-.9q.1-.2.4-.1h.4q0-.3-.2-.3t-.1-.1-.4-.2q-.8.1-.6.7c0 .2-.7.2-.9 0q0 0 .3-.3c.4-.3.3-1.2-.2-1.5q-.7-.6.6-.5.6 0 .5.4 0 .2 0 .1.2 0 .1.3 0 .6.3-.2.2-.5.5-.5t.2-.3-.7-.4h-.8q0-.3.2-.1h.6q.3-.3-.2-.4l-.6-.3q0-.3-.3 0-.7.3 0-.4.2-.3 1-.2t.6-.2q-.1-.3.2-.3t-.1-.1q-.7-.3 1-.4.5 0 .8-.3l.7-.3q.6-.1.5-.2 0-.2.5-.2l.7-.1 1.3-.4q2.5-.4-1-.6h-2.3c-.3.3-1 .2-.8-.1q0-.1-.2-.2-.2 0-.2.3 0 .1-.3.2-.3 0-.2-.1 0-.2-.3-.3h-.2l-.7.5q-1.3.6-.7 0 .3 0 .2-.4 0-.1.2-.2l.5-.2q.8-.2-1-.3l-1.8-.4a51 51 0 0 0-9.2-.2m-6.6 1.2q.1.4-.4.2-.5 0 0-.3l.4-.1zm16.3.1-.6.2q-.5 0 .1-.2 1-.3.5 0m-51.3.3h-.3.1q.3 0 .2 0m.9 1.2q-.6 0-.9.4-.4.6-.3 0 .1-.8 1.4-.5.5 0-.2.1m2.7-.1-.2.1q-.4 0 0 .3t-.1 0-.3-.4q.3-.4.6 0m-2.8 1.1q0 .3-.2.1l-.3-.2q0-.2.2-.2t.3.3m-.4.3-.2.2h-.1l.1-.3zm-3.2.7-.4.3q-.1 0 .2-.3.6-.5.2 0m16.5 1h-.4.4m-2.5.2h-.5.5m-28 1.1q.2.5-.3 0v-.2zm-2.7.3h-.3l.1-.1zm67.2 3h-.3v-.3zm-.4.4q-.8.4 0 .8.6.3-.2.1-.3 0-.4-.4 0-.3-.3-.5-.3-.1.5-.1t.4.1m1.5 0h-.5l.2-.1zm0 .3h-.2q-.2 0 0-.1zm-31.8 10.7-.3-.1q-.3-.3 0 0z"/><path d="M96.7 92.6q-.7.1-.7.4l-.4.4q-.3.2-.2.3.1.2 1.3.2t1.4.3l.9.2q.6 0 .8-.5.5-.6-.2-.8l-1-.3-.8-.2zM89.7 93.4q-2.1.4-1 .5h.8q.2.3-1 .2t-1.3.3q-.3.5 1.4.4c1-.1 2-.5 1.5-.7h.8q0-.2.3-.2l.6-.2q.3-.2 0-.4c-.3-.1-.5-.1-2.1.1"/><path d="M82.5 94.7c-1.1 0-2 .3-3.9.9l-.9.1-1 .2q-1 .5 0 .5.3 0 .5.2.1.3.5-.1.4-.3.4-.1t.5.1q.7-.1.2.1-.5.4.2.3.4 0 .8-.2h.5l-.5.2q-.5.2-.2.4l1 .2q.8 0 .7.2 0 .8 3 .2l3.5-.4a5 5 0 0 0 2.5-.5q1.5-1-.3-.8h-.8l.3-.4q.3-.6-.1-.6 0 0 0 .2 0 .1-.1 0l-.8.1c-1.3.4-1.2.4-1 .6q.4 0 0 .1-.8.1-.1.4l-.7.1-1-.1c.3-.3-.5-.7-1.5-.8q-1.5-.1-.6-.4.5-.1.3-.2l.3-.1.6-.3q0-.4-2.3-.1m-.4 1.5.8.2h-1.8q-.2.2.1.2h.2-.6q-.5-.2-.1-.2.2 0 .3-.2h-.6q-.7 0-.1-.2.4-.2.7 0zm.6-.3-.4.2q-.3 0-.2-.2l.4-.2q.3 0 .2.2m-.1 1.5q0 .2-.5.2-.7 0-.1-.2l.4-.1z"/><path d="m72.3 98-.7.5q-.2.4-.4.4l-1 .5-1 .4q-.1 0-.4.2l-1.1.6q-.7.2-.7.4h.3q.6.1.7.7-.2.6 1.1.2l1.4-.2q.7 0 1.1-.4c.6-.4 2.5-1 2.7-.8q0 .1-.5.2-.5 0-.9.4-.5.2 0 .4t-.2.5q-.9.2-.3.6c.2.2.5.2 1.8.1H77l-2 .2c-2.6 0-3.4.2-3.4.6q0 .9 1.5.9 1 0 .8.2-.2.1-.2.4c0 .3.2.3 1.5.3q1.4 0 2.3-.3l1.6-.2h.8-.7q-2 .4-1.6 1.2 0 .4-.7.1-1 0-.7-.3h.5q.7.3.3-.2-.3-.3-.7 0c-1 .3-3.1.5-3.7.2h-.2q.1.3-.7.2-1.3 0 .4-.4 1.3-.2.6-.7-.4-.4-1.4-.3l-1.8-.3-1-.3q-.2 0-.4-.2c-.3-.4-1.7-.4-2.4 0q-.5.2-.9.1c-.3 0-.4-.4-.1-.4l.1.2.2.2q.2 0 .1-.2 0-.1.2-.2l.2-.3c0-.2-.8 0-1.2.2-.2.2-1 .6-1.3.6v-.7q.3-.6-.1-.7-.3 0-.4 0c-.2.3-1 .7-1.4.7q-.3 0-.2-.2 0-.4-.2-.2l-.7.2-3.4.8q-.4 0 .2 0 .5 0 .2.1-.3.3-.8 0c-.5-.2-2-.3-2-.1l-.4.1-.6.3c-.5.5-2.4.2-2.2-.3q.1-.2-.8-.3-1.8 0-1.8-.4l-1.2-.1c-.7 0-1.8 0-2.4-.2l-2.5-.3q-1.4 0-1.4-.3.1-.3-1-.2-.9 0-1-.2t-.3-.1-.4-.2q.1-.3-1 .1t-2.2.4c-.6 0-1.6.2-2.1.4l-1.6.2q-1 .1-3.3 1.1-1 .5-2.4.7-1.2 0-1.9.4l-.8.2q-.6.1 0 .4.8.5.6 1-.5.5.1.5.4 0 .2.3-.4.8-1 .9c-.5 0-1.3-.3-1-.4q.2 0 .5-.2c.2-.4 0-.4-1.5 0l-3.5.7q-1.5.4-1 .6t0 .6q-.8 1 1.3.7 1 0 1.4.2l.8-.1q1.2-.5.8-.1-.3.2 0 .2c.3 0-.6.8-1.1 1h-1.6c0 .2-1.1.5-1.7.4q-.7-.2-2 .6-.4.3-.7.3l-1.6.7-.5.3c-.5 0-1 .8-.7 1.1q0 0-.4.3-.4.1-.4.8t.5.6 1-.2q.8-.1.5.2-.1.3-.5.4-.3.1-.6.5t-.5.4q-.4 0-.1.2.2.3.5 0h.3q-.3.3.6 0c.6-.4 1.4-.2 1.3.1-.2.3.4.3.6 0q.2-.3.6-.1.7 0-.3.7l-1.5.9-1.1.4-1.7.6q-2.2.7-2.2 1H7c-.3-.2-.9 0-2.8.7l-2 .6c-.8 0-2 .7-1.9 1l.6-.1.8-.2q.4 0 1-.3.4-.2.8-.1.4 0 .7-.2l.4-.2H5c.2-.4 1-.2 1 .1q.1.6.6.2 0-.3.4 0 .3.2.4-.2.3-.3 0-.3t-.3-.3q0-.3.4-.2t.9-.1.5-.2c.3.1 1.4-.3 1.7-.7q.3-.2.4-.1l.2-.1h.5q.5 0 .4-.2 0-.1.6-.2l1-.4A26 26 0 0 0 17 119q.4 0 1-.5l1-.4c.6 0 1-.5.6-.7q-.2-.1.1-.2h.6q0 0 .3-.2l.5-.2.4-.2.3-.2q.4 0 .6-.2.9-.5 1-.3l-.5.3q-.3.2-.3.4 0 0-.4.3t-.5.4q.2.3 2-.3l1.2-.3h.2c.3-.3 1.3-.4 1.7-.2q.4 0 1-.3 1.2-.5.7-.6l-.2.1q0 .2-.2.2v-.3q0-.3.4-.3h.3q0-.2.4-.2.8.1 0 .5-.2 0-.3.3h.5q.6-.3 1 0 .7.1.2.3t-.4.2q0 .2.3 0l1.5-.1q1.2 0 1.7.2t1 .2.2 0q-.3.2.2.6l.6.7q.1.4.2.4c.3 0 0 1.3-.4 1.7q-.3.5 0 .3.2 0 .2.3 0 .5-.1.3-.2 0-.2.2 0 .6.6 0 .3-.5.4-.3l-.5.5q-.9.7 0 .6h.3l-.4.2q-.5 0-.3.7 0 .7.6.6t.8-.3q.3-.4.5 0 .2.3.4-.2l.2-.4-.1.5v.5q.3 0 .2.3t-.1 0q-.2-.3-.3 0l-.3.3c-.2-.2-.7.3-.5.5l-.1.3q-.4.2.2.7.3.3.1.4l-.1.4q0 .3.3.3l-.1.5q-.4.7-.2.7v.3q-.3 0 .2.6t.2.3q-.7-.3-1.2 0h-.4q0-.2.4-.3H36q-.5-.1-.4.4t-.2.5l.3.2q.3.3.4.5v.3l.4.3q.3 0 .3.3l.1.2q.3 0 .2.3l.1.1.6.3q.5.3-.2.2c-.5 0-.6 0-1 1.3a13 13 0 0 1-2.3 4l-1 1.3c-1 1-1.3 1.5-1.6 2.5l-1 1.7q-.7.8-.4 1.1.1.2-.1 1-.4.5-.1 1v.7l.1.4v.7q0 .7.2.8t0 .3q-.3 0 0 1.2l.2 1.5q-.1.7.7.7.6 0 .6.3.1.3.8.2v.3l.1.2q.8.1.8 1.4l.3 3.7q0 1 .4 1.1l.7.9q.4.6 0 1-.1.6-.9.4l-.3.1c0 .3 1.4 1.8 1.6 1.7s1.3 1 1.3 1.3q0 .3-.3.7l-.2.8q0 .6.6.7c.4 0 1.6 1.3 1.6 1.8q0 .5.2.3l.5-.2q.4 0 .2-.7v-1l-.3-.2v.2l-.2-.2q-.5-.6-.5-.1v-.7q.4-.3 0-.4c-.2 0-.5-1-.2-1.1l.1-.3q0 0-.2 0l-.1-.4c0-.4-.7-1.8-1-2-.1 0 0-.9.2-1.1v-.3H37q-.3.5-.2 0 0-.3-.2-.5l-.2-.3.3.1q.4.6.2-.1-.3-1-.4-.5-.2.2-.5-.3c-.3-.5-.3-.6-.1-1.5q.2-1.6.7-1.1h.4c.2 0 .9.7.8 1v1l-.1 1.5q-.3.6.1.6 0 0 0-.4 0-.3.3.3l.5.8.2.3.3.3q.4 0 .3.5 0 .6.2.5l.4.4q0 .4.4.4t0 .6l-.2.6c0 .2.6.8.9.8l.3.5.7.9.7 1 .7 1.1c.4.5.4.9.4 2.3q0 1.3-.3 1.2-.5.2.2 1.4.4.5 1 .9.5.3.7.7c.2.3 1.1.8 1.7.8q.3 0 .8.5c.6.5 2.3 1.4 2.8 1.4l.4.2c.4.4 1.3.9 1.6.9q.2 0 .7.2.6.4 2-.3l.8-.3q1.1.1 2.2 1.4c1 1.4 1.5 1.8 2.5 2q.8 0 1.1.3 1.4.7 2.4.6.8 0 .5.2-.3 0 .4.9c1.6 1.8 1.9 2.3 1.5 2.9q-.3.6.6 1.1.5.3.7 0 .1-.5.1 0 0 .3.6.5 1 .5.6.9c-.2.1 0 .6.2.6q.2 0 .6.4.5.5.4 0 0-.3.3-.2l.6.1q.6.2.3.8-.3.3 0 .4.3 0 .2-.2 0-.6.7.3c.3.4.3.4.9.1q.9-.4.3-1-.5-.4.3-.7.5-.2.5-.4l.2-.4c.3 0 .4-1 .2-1l-1.2.5c-1.2.7-1.4.7-1.8.3q-.3-.3-.3 0t-.2 0-.2-.4q0-.3-.4-.5-.3-.1-.4-.4 0-.2-.2-.3l-.3-.4-.4-.9v-.7l.2-.7q0-.5.2-.5t.2-.9q0-.8.3-1.5t.2-1l.1-.4q.2-.1-.2-.5l-.8-.7c-.3-.3-2.3-.6-2.6-.4s-1.7.2-2 0l-.4.2h-.5q-.2-.2-.4-.1-.2 0 .2-.4t.6-1.2l.3-.9v-.2l.3-.4q.5-.4.5-.6 0-.3.2-.8l.2-.7.1-.4.1-.5.3-.5q.3-.2.1.1 0 .5.5 0v-.4q-.1 0 0-.4v-.7c0-.4 0-.4-1-.3q-1.2 0-2.3.3t-1.3.7l-.2.6-.4 1q-.6 1.5-2.1 1.6c-1 .1-2.2.4-2.6.6q-.4.3-.7-.2l-1-.5q-.5 0-.9-1.6l-.4-.8-.3-1q0-.7-.2-1.2v-.7a13 13 0 0 1 1.3-4.4q.4-.5.5-1.5c0-1.5.4-2 2.7-3.3 2.4-1.5 3.3-1.8 3.7-1.4l1.1.2q.9 0 .9.2t.2.3l1.3-.1c.1-.2.7-.3.6-.2v.5q.2.3.5 0 .5-.3 0-.6t-.1-.5l.4-.5c0-.3 3.6-.4 4.2 0q.3.1.3.4c0 .4.6.5 1 .1q1-.6 1.3.1l.5.7q.5.6 0 1.4l-.2.9.5 1.8.1.3.4.5q.3.3.3.8t.3.3q.3 0 .4.2t.3 0l.2-.5.3-.5q.7-1.1.4-2.7v-1.3l-.3-1.2q-.7-3.3 2.6-5l1.2-1q.6-.7 1.1-.7l.6-.2a4 4 0 0 1 1.8-1c.5 0 1-.5.6-.7q-.2 0 .5-.5 1-.5.5 0-.1.3-.4.3t-.1.1h.5q.4-.1.4-1.4l-.2-1.3v-.7l.3-.8q.1-1 .3-.1l-.2.7-.2.5q-.1.6.4-.1.4-.5.3-.7h.1q.2.1.6-.4.6-.4.4-1v-.6q.3-.1.2.1-.2.7 1-.3.6-.5.9-1.2c.2-.5.3-.6 1.2-.7 1.1-.3 2-.7 1.6-.7q-.3 0 .5-.3l1-.1.5-.1.4-.2q.7-.2.4-.8-.2 0-.2.2-.1.6-.5-.1-.1-.5.1-.6l.2-.4q.2-.9 2.6-1.8l1.8-.7.9-.2q.8-.1.3-.4l1-.3 1-.3h.5l-1 .7q-1.3.6-1.2 1 0 .5.2.7c.2.3.7.4.7.1l.4-.2.3-.1c0-.2 1.3-1 1.5-1h.4l3-1q0 0 .3-.2l.5-.4c.4 0 1.3-.5 1.3-.8l-.3-.2q-.5.1 0-.5v-.5q-.2-.3-1.3.8-.9 1-1 .9 0-.2-.4 0c-.4.1-1.8-.1-1.7-.4h1q0 .3.3.2t.3-.2l.5-.4q.7-.2-.5-.2-1.5 0-1.2-.6 0-.3-.2-.2l-.2.2q0 .2-.2.1-.4 0 0 .5.6.6 0 .4t-.5-1.2q0-.4.6-.9l.6-.6-.5.2q-.9.1.3-.4c1.3-.5 1-1.5-.6-1.5-1 0-3.3.7-4.3 1.3q-1.4.9-.4 0c.7-.6 2-1.2 2.4-1.2q.4-.1.8-.5l1-.7c.2-.1 1.8-.2 4-.2l3.7-.1.4-.3.9-.5q1-.8 2.1-.8h.6l-.8.8a10 10 0 0 0-2 2.3l-.3.1q-.3 0-.4.3 0 .2-.2.1c-.2 0-.7.4-.7.6h.4q.2 0-.3.3-2 1.1 1.4 1c4.3.2 4 .2 3.7.5q-.5.5 0 .6v-.4h.2q-.1.8.5.6c.6 0 1.6-1.7 1-1.7v.2l-.2.1q-.2 0-.2-.2t.2-.2l.3-.1q.2-.4 0-.3-.4 0-.6.3l-.5.4.2-.4q.4-.5.2-.5h.3q.5 0 .5-.3 0-.4-.3-.2-.7-.2 0-.6.4-.2-.2-.6l-.2-.1q.3 0 .1-.2 0-.2-.3 0-.2.4-.2.2l-.3-.2-.2.1-.5.2q-.6 0-.4-.2 0-.3.3-.3.5-.1-.3-.4l-.6-.1.6-.5q.6-.5.7-.3c.2.3.4-.1.2-.4v-.3q.3 0 .4-.3t-.4-.2q-.5 0-.2.1.1.2-.3.1h-.6l.8-.4q.9-.2 1-1.4.5-1.4-.3-1.4c-.5-.1-.9-.8-.5-1s-.2-.7-.8-.6q-.5 0-.5-.2c0-.2-.7-.5-1.2-.4q-.2 0 0 0 .4-.4-.2-1t-.1-.5c.3-.1.4-.9.1-1l.1-.6q.4-.4 0-.5-.4-.2-.4-.8t-.2-1q-.2-.5-.2-1.3v-.7q-.5.2-.5.7 0 0-.2 0l-1.2 1q-.8.8-1.2.9l-.9.3q-.8.4-1 .1-.9-.7-1-1c0-.4.6-1.6.8-1.7v-.3l.1-.1.2-.1-.5-.2-1-.2q-.4 0-.1-.3.1-.3 0-.4l-1.4-1.1q-.2-.3-.5-.3-.5.1 0 .3.1 0 0 .2c-.4.2-.6.2-2.7-.2-1-.2-1-.2-1.4.2l-.4.8q0 .8-1 1.2-1 .5-.2.3.6-.1.3.3l-.1.6-.1.2-.9.6-.9.6c-.1 0-.6.4-.6.6h.2c.3 0 1 .8 1 1.1 0 .5-.6 1.8-1 2-.6.7-2.6 1.6-3.6 1.8l-1 .1v1.5l-.2.4-.1.5-.2.7q0 .6-.5 1-.5.3-.4.5l-.1.1q-.1 0-.2-.2-.1-.1-.6.2-.7.7-.8-.1 0-.3-.2-.6-.3-.1-.4-.4l-.1-.6q-.2-.3.4-.1c1 .3 1 .3 1-.2q0-.5-.6-.4t-.4-.3l.2-.4.1-.5.2-.4c.2 0 .7-1 .5-1.1l-1.4-.2q-1.3 0-1.6-.3l-1-.5q-.7-.2-.7-.4c0-.3-.6-.9-1-1q-.5 0-1-.4-.6-.3-1.2 0l-.7.1c-.2 0 0-.8.3-1.5q.5-1-.6-.8l-.6-.1c0-.2 1.6-2.1 1.7-2.1l1.1-.8 1.5-.8.5-.4q.1-.2.7-.3t.6-.3l.3-.1.1-.2q-.2-.3.9 0 .3.2.1 0t.4-.3l.8-.6q.3-.3.5-.3t.4-.2l1-.2c1-.1 2.8-1 3.4-1.6.4-.4 1.5-1 1.7-1l-1 1-1 1q0 .3-.7.5-1.5.5 0 .5.8 0 .5.3-.2.8 1.2 0l.8-.3.6-.3c.3-.4 1-.4 1 0-.2.4 1.1.5 1.8.3q.7-.2.4-.5 0-.3-.3-.3-.3.1-.4-.3t-1.5-1.1q-.3-.1-.2-.6l.2-.6c.1-.1.4.4.3.5q-.2.3.7.2.1 0 .2-.3-.1-1.3.4-.6.3.6.4.1l.4-.2.8-.3.7-.2.6-.5q.4-.4.2-.6-.4-.5.9-1 .5-.2.7-.6.3-.5-.1-.4-.9-.1 0-.5h1.2q.3.3 1 .2 1 0 .2.4c-.5.1-1 .6-.6.6q.3 0-.1.3t-.3.5l.2-.1.3-.2q.4 0 .3-.6h.1c.3 0 1.6-1 1.6-1.1q0-.2-.3-.1-1 .4-1 .1l.5-.2q.5 0 .6-.4 0-.3.1-.1l.3.2q.3 0 .2.3t0 .1h.2l.5.5.5.3h-.5q-.4 0-.4-.2.1-.5-.5-.2-.3.3 0 .5v.4q-.1.2.5 0 .6 0 .6.2t-.7.3c-1.2 0-2.4.8-2 1.3.2.4 2.4 0 2.4-.6q0-.1.2-.4.3-.1.2.1 0 .4.7.4t.6-.2-.4-.3q-.3 0-.4-.3t.1 0 .4 0l.5.2q.3 0 .2.3v.7q0 .3-.4.3l-.5.2-1.1.6q-1.5.4-1 .8t0 .4l-1 .2h-1.5c-.8-.2-1-.1-1.5.1q-1.5.8-1 1.2.5.5 1.7.2l1.3-.2h1q.3 0 .3.2l.1.2q.3 0 .3.3 0 .4.3.7l.4.7q0 .7.7.3.5-.2.9.2t.9.4l1.2.3.9.3.3.2c.4.4.9.2.7-.3 0-.4-.5-.5-.5-.2q0 .2-.2.1-.2 0-.2-.4t-.4-.7l-.4-.5-.4-.3-.3-.3q0-.4.3 0l.5.2.4.2q.2.4.5.1.2 0 .1 0 0 .1.3.3t.5.4q.3.6.7.2l-.1-.3q-.3-.2 0-.2.1 0 .2-.3 0-.3.2-.3t.5-.2q.4-.2 0-.6v-.7q.3-.5-.6-.6-.3 0-.5-.9l.1-.3q.5 0 0-.5 0-.3 0-.1h.5c.3-.3 1 .4 1.1.9q.2.7.5.7h.4q.6.3 1-.4.1-.4.8-.3l.6-.1q.1-.6.7-.7l.6-.3.4-.3-.5-.4q-.4-.3-.7-.2t-.1-.1l-.1-.2q-.3 0-.7-.5t-.8-.3h-.5q0-.3-.6-.5l-.6-.4c0-.2.8-.6 1-.5q.5.2.3-.3-.3-.3 0-.4c.6-.2-.1-1.1-1-1.4h-.9v-.2q-.1-.3-.2-.2t-.3-.2q0-.4-.8-.4l-1 .2q-.3.3 0 0 .3-.4 0-.4-.1 0 0-.1l-.2-.2q-.3 0-.3-.2t-.4-.4l-.7-.1q-.3 0 .1-.1.5 0 .5-.3 0-.7-2-.8-1.4-.1-1.6.2-.4.3-.3 0 0-.6-2.4 0-2 .3-1 0l.4-.2-.4-.2c-1.2-.4-4.4.6-5.8 1.8l-.4.3c-.2 0-.8.9-.7 1l1 .1.9.2h-1q-1.7 0-.8.7.4.4.7.3h.3q-.4.4 1 .3h.4q-.6.3-.7 1 0 .3-.4.4l-.8.5q-1 .7-.7.3 0-.2-.2-.2c-.3 0-.9.6-.7.8q0 0-.5.3t-.6 0q-.4-.5.4-1c1-.4.6-1.5-.4-1.1q-.6.2-.4-.2 0-.4-.3-.3c-.4 0-.5-.6-.1-.8q.1 0 0-.4-.3-.4 0-.6c.2-.3 0-1-.4-1l.5-.3q.7-.2.8-.5l1-.2c1.2-.1 3.8-1.3 3.5-1.5l-1-.2h-1.3c-.8-.2-2 0-2 .3q0 .2-.2.1-.3 0-.7.3l-.7.4q-.2 0-.2.4 0 .8-1.2 1.2l-.5.4-.4.1q-1 .2-1.1.8 0 .2-.5.4t-.4.6-.4.4l-.8-.2q-.2-.3-.8 0-.4.1-.6.4l-.8.3q-1.2.3-.3.6.3 0 .4.3t-.2.1q-.4 0-.8.3c-.3.4-.5.4-2.3.4q-2.1 0-2-.2 0-.3-.4-.2-.9.2-.4-.2.5-.2 0-.3l-.4.1q-.2.3-.2-.2 0-.3-.3-.4h-.2q.1.2-.4.1H80l.5-.3q.5-.2.6 0 .4.3.4 0t.1-.1q.3 0 .4.3 0 .2 1 .2 1.2 0 1.4.3.2.1.6-.2l.6-.4q.4.1 0-.5 0-.2.2-.3t.3.3l.1.2c.3 0 1.1-.7 1.1-.9q-.2-.4-1.5-.8-.6-.4 0-.7.3-.1.3-.4.2-1 1.7-1.8l.9-.5q-.1-.3-1-.3c-.6 0-1.6.3-1.2.4l.2.3h-.4q-1-.6-1.9.3l-.6 1q-.2.3-.4.3t.1-.6q0-.2-.2-.6c-.3-.4-1-.4-1 0q0 .5-1.2 0-.7-.4-1.3-.1h-.3q.5-.5-.1-.5-.3 0-.5-.4c-.3-.6-.7-.7-2-.7l-2.5-.2zm32.7 1.5-.9.8-.3.6-.1-.4v-.5l.7-.4.8-.3zm4.7.3q0 .5.8.3h.3l-1.2.3q-1 0-.4-.3l.2-.5q0-.1 0-.2zm-6.3 1q-.3 0 0 .4 0 .5-.3.1c-.2-.2 0-.7.3-.6q.3 0 0 0m10 .2-.3.1q-.5 0 0-.1.7-.3.3 0m2.5 1.3-.6.2q-.5 0 0-.2 1.1-.3.6 0m1.8.7q-.1.3.2.1l.4.1q.1.3-1 .4-2 .4-.5 0l.8-.4.1-.4zm-17 .1h-.3.4m16.2.1-.3.2h-.3c.1-.2.6-.3.6-.2m-57.2.3h-.3q-.2 0 0-.1zm44.2 0-.4.2q-.5 0-.2-.2.6-.3.6 0m2.5 0h-.6l.3-.1zm-48 .2-.5.1q-.2 0 0-.1.9-.3.5 0m37 0q0 .1-.2.2l-.2-.2.2-.2q.2 0 .2.2m-3 .4-.3.4q-.9.5-.1.5h.2c-.2.2-1.5.6-2.1.8q-.5.1-.7.5 0 .4-.4.3-.5 0 0-.3.3-.2.2-.4t0-.1c.2.1.8-.2.7-.4q0 0 .7-.3t.6-.4H91v-.3q0-.3.4-.2.3 0 .4-.2c.1-.1.8-.1.8 0m-37.7.2q-1.4.5-.7 0l.8-.2q.6 0-.1.2m63.6-.1h-.6l-.6-.1h1.2m-22.3.5q-.4.7-.6.6l.5-1q.1 0 0 .4m13.2 0-.3.2v-.2l.2-.2q.2 0 .1.2m-5.2.2-.2.1v-.1l.2-.2zm6.3 0h-.4q-.1-.2.1-.2zm-11.8 1-.3.2v-.3q.5-.4.3 0m-10.6 0-.2.2h-.3q0-.2.3-.2zm22.7.1h-.6.6m-33.5.8-.4.1q-.3 0-.2-.2zm11.8.2h-.3q-.2 0 0 0zm-23.6.3-1 .3q-.7.2-.1.4h2.1l-.6.3-1.2.3q-1.3 0-1.3.4 0 .2-.6.1l-.8.3q-.5.2-.7.1s1.2-.6 1.5-.5h.3c.2-.4-1.3 0-1.8.3q-.5.4-.9.2t0-.2l.2-.2.4-.2q.3 0 .5-.2l.6-.2h.6c.7-.1 0-.6-.7-.5h-.6.6q.4 0 .5.3v.1l-1-.2-1-.2 1.4-.2zm47.2 0 .4.2q.9.3-.5.5-.8 0-.6-.2c.2-.5.7-1 .7-.6m8.7.1q0 0-.2 0-.7 0-.1-.1zm-96 .3H25h.4m72.7.6q0 .5-.1.3l-.4-.2H97v-.4q-.3-.3.3-.2.6-.1.5.5m-4.1.6q.5.3-.1.2-.3 0-.5-.3 0-.4.6 0m-72.1 1-.3.2q-.2 0 0-.1.4-.3.3 0m85 .3-.2.1q-.3 0-.2-.3.3-.3.4.2m2.2 1.3-.3.2-.2-.2.3-.2q.2 0 .2.2m-44 2q.5.4 2.2-.2.3 0-.5.3l-1.7.6-1 .4c-.2.3-2.8.5-3.1.3q-.4-.2 0-.2h.5q.3 0 .8-.3l1-.4q.7 0 .7-.6-.1-.7.4-.3zm49.3.6q-.2 0-.4 0h.4m-87.5.7h-.5q0-.2.2-.2zm-1.4.2h-.4l.1-.1zm-.7.2c-.2.3-.8.6-.8.4q.1-.2.8-.5zM19 117h-.5l.2-.1zm1 0h-.4q-.3 0-.2 0c0-.1.6-.2.6 0m17.2 1.3-.2-.2q0-.3.1-.1.2.2.1.3m.3.4v.2l-.3-.2v-.2zm-.8.4q0 0 0 .4.3.2 0 .2t-.2-.2l-.1-.2v-.3zM15 119l-.1.2-.2-.2v-.1zm23.2.8q-.5.5-1 0h.7l.3-.3q.2 0 0 .3m-.2.6q0 .2-.1 0-.2 0-.3.3t-.3 0v-.1q.3 0 .1-.2 0-.2.2-.2zm-1.1.6-.3.2q-.4.5-.1 0t.4-.2m.6.7v.2l-.2-.2v-.3q.3 0 .2.3m1.2-.2h-.4.4m-2 1.3-.3.4v-.4q0-.6.2-.4.3 0 0 .4m35.5 2a7 7 0 0 1-.4 2.7l-.2-.1-.1-.4q-.1-.3-.4 0h-.3v-.6q-.3-.4.2-.6l.4-.1H71q-.7 0 0-.7.9-.6 1.2-.2m42.5-.1-.5.2q-.7.3-.3 0 .6-.5.8-.2m-77.7.6v.2l-.2-.2v-.2zm34.8 3-.5.6q-.5.5-.5.2l.4-.6q.7-.5.6-.2m-33 2q0 .3.6.5t.3.4 0 .2l.2.4q0 .4-.1.1-.2-.2-.4 0-.2 0-.1-.2l-.4-.6q-.7-.9-.3-1t.2.2m42 1.5q.3.2.2.5 0 .9 1 .7.3-.1 0 .1 0 .3 0 .4l-.1.4-.2.8q0 .3-.3.3v-.3q.2-.3-.7-.1l-1.1.2q-.8.2-1.3-.3l-.3-.2q-.3 0 .2-.4 1-.6 0-.4-.4 0-.4.3l-.8.3-1 .4-1 .2q-.6.2 0-.1t-.4-.3q-.7 0-.8 0l2.6-1.2 1-.4.2-.1-.1.3q-.3.1-.2.2c.4 0 1.1-.3 1.1-.5q0 0-.2 0t-.4-.2q0-.2 0 0l1.1-.3q1.4-.5 2-.3m-41.5.6-.6.2q-.6 0-.2-.1.3 0 .5-.3.3-.1.3.2m65.2.5q0 .5-.5 0-.3-.1 0-.1zm1.7 2.3-.3.1q-.3 0-.3-.2c.1-.1.6 0 .6.1m-22.3.4h-1.4c0-.2 1-.2 1.4 0m-3.1.2-1.3 1.2c-.6.1-.7.3-1.3 1q-1 1-1 2 0 .4-.7 1.2-1.2 1.3-1.3.3 0-1.6 2.1-4c.7-.7.9-1.2.3-.6q-.2 0 .1-.3.5-.4.7-.4l.6-.1c.5-.3 1.8-.6 1.8-.3m2.9.5q.6.3.9-.1.7-.8 1 .1c.5 1.2-.3 1.9-.9.9q-.6-1-.6 0 .2.4-.4.8l-.6 1c-.1.3-.7.9-1 .9v-.7q.1-1-.4-.7l-.6.3-.4.2.7-.7.7-1v-.2q.4-.3-.2-.6-.4-.2-.4-.5-.1-.3.8-.1.7 0 1.4.4m.4-.3-.3.2-.1-.2.2-.1zm5.5 2.7c0 .5-1 .9-2.1.8H86q-1.2.2 0-.4.6-.3 1.8-.3l1.1-.1.4-.2q.3 0 .3.2m-3.9 1.6c0 .1-1.3.8-2.5 1.2q-2.4 1-2.8.6-.6-.4 0-.5.4 0 .4.2t.1 0l1.2-.7c.8-.4 1.1-.5 1.7-.4q.8 0 .6-.1-.4-.1.3-.3h1m-4.3 1-.5.1q-.2 0-.3-.2l.5-.1zm4.7 6q.2.6-.2.1-.3-.2 0-.2.1 0 .2.2m0 3H86q-.5-.2-.1-.2zm-20 8.4q0 .2-.2.2t-.1-.2l.1-.2zm2 27.6q.2.5-.5.4t-.3-.3q.5-.2 0-.3l-.3-.4q-.1-.4.4-.1.5.2.6.7"/><path d="m94.4 98.5-1.5.2-1.3.2q-.8.3-.4.4.5.5-.4.7-.5 0-.5-.2c0-.2-.6-.2-1 0q-.7.4.5 1 .6.3.6.6c0 .5 0 .5 2 0 1-.1 1.2-.3 1.9-.9l.7-1q0-.4.3-.4.4.1.1-.5 0-.3-1-.1m.3 1.1q.3.3 0 .1l-.4.1q0 .1-.2 0 0-.6.6-.2M19.3 118.3l-1 .5-.5.2q-.4 0-.6.2l-.4.2c-.2-.2-1.2.3-1.3.6q-.4.7.6.6l.7-.2.6-.2 1-.5q.8-.2.7-1h.6q.6.2.5-.3v-.4zM73.3 169.2l-2.3.8-.5.4q-.4 0 0 .1.3.2-.2.3-.7.2 0 .4.5 0 .8-.2l.7-.3.7-.3q.3-.4 1-.4t.5.1-.3.3c0 .1 1 .5 1.5.5q.3 0 1 .4.9.4 1.3.3.4 0 .4.3 0 .4.3.7l.2.4.3.4.2.4c-.2.3 3.4.3 4.2 0l.5-.2-.5-.4q-.5-.5-1-.5t-.4-.2-.7-.5c-.7-.3-1.7-1.1-1.7-1.5q0-.2-.1-.1l-.4-.1c-.3-.3-.8-.4-.6 0H78l-.5-.1q-.3 0-.2-.2c0-.5-3-1.1-4-.8m6.2 3.9-.4.1-.5-.1.4-.2q.4 0 .5.2M84.6 174q-.9.4 0 .4.3 0 .3.5t.2.7q.3.5-1.4.2-1.1-.2-1 .2-.3.3.3.5 1 .5.8.2 0-.2 1-.2t1.3.5l.3.5.4-.6q.6-.9.8-.4l.5-.1c.5-.3 1.6-.2 1.6 0l.4.2h.1q0-.2.2-.4.5-.2-.3-.8-.7-.6-1-.6t-.3-.3c0-.3-1.4-.7-2.3-.5l-1.1-.1q-.3-.3-.8 0"/></g></svg>